<?xml version="1.0" encoding="UTF-8"?>
<svg width="139px" height="133px" viewBox="0 0 139 133" version="1.1" xmlns="http://www.w3.org/2000/svg" xmlns:xlink="http://www.w3.org/1999/xlink">
    <!-- Generator: Sketch 49.2 (51160) - http://www.bohemiancoding.com/sketch -->
    <title>Group 4</title>
    <desc>Created with Sketch.</desc>
    <defs>
        <path d="M0.960942857,25.8342 C-0.0253714286,24.8255 0.0123333333,23.21235 1.04445714,22.2495 L24.1553619,0.69545 C25.1540095,-0.2359 26.7513524,-0.1988 27.7052476,0.777 L35.4780667,8.73005 C36.464381,9.7391 36.4266762,11.35225 35.3945524,12.3151 L12.2836476,33.86915 C11.2853524,34.8005 9.68765714,34.7634 8.7337619,33.7876 L0.960942857,25.8342 Z" id="path-1"></path>
    </defs>
    <g id="Page-4" stroke="none" stroke-width="1" fill="none" fill-rule="evenodd">
        <g id="17-home" transform="translate(-1031.000000, -2331.000000)">
            <g id="knowhow" transform="translate(163.000000, 2183.000000)">
                <g id="images-knowhow" transform="translate(0.000000, 112.000000)">
                    <g id="Group-4" transform="translate(868.000000, 36.000000)">
                        <g id="Group">
                            <g id="Group-18" transform="translate(36.000000, 64.000000)">
                                <mask id="mask-2" fill="white">
                                    <use xlink:href="#path-1"></use>
                                </mask>
                                <use id="Clip-17" fill="#D4E8E7" xlink:href="#path-1"></use>
                            </g>
                            <polygon id="Fill-19" fill="#1BCEB8" points="11 105.806908 30.6369268 87 47 104.193092 27.3630732 123"></polygon>
                            <path d="M0.887174618,115.283096 C-0.244929881,116.354422 -0.301175,118.134434 0.76233789,119.238601 L13.2007402,132.154318 C14.2639101,133.258486 16.0599814,133.284759 17.1924288,132.213433 L27,122.930683 L10.6950887,106 L0.887174618,115.283096" id="Fill-20" fill="#0DBFBA"></path>
                            <path d="M57.2237141,90.8590597 L44.7005682,77.8607591 C43.6301843,76.7495613 41.8367734,76.7088568 40.7152874,77.7699568 L31,86.9615178 L47.4155451,104 L57.1308324,94.8080911 C58.2523185,93.747339 58.294098,91.9699096 57.2237141,90.8590597" id="Fill-21" fill="#0DBFBA"></path>
                            <path d="M86.3960058,77.2460522 C67.5784376,72.1926181 56.3999794,52.7634921 61.427754,33.8498875 C66.4555286,14.9362829 85.7863474,3.70042636 104.603916,8.75386044 C123.421484,13.8076431 134.599942,33.2367691 129.572167,52.1503737 C124.544046,71.0639783 105.213574,82.2998348 86.3960058,77.2460522 Z M126.966381,13.3029271 C110.378678,-3.87205642 82.8438265,-4.49911725 65.4650938,11.9024099 C48.0867078,28.3035885 47.4454914,55.5226992 64.0331941,72.6973341 C80.6212436,89.871969 108.156095,90.4990299 125.534828,74.0978513 C142.91356,57.6963242 143.55443,30.477562 126.966381,13.3029271 Z" id="Fill-24" fill="#1BCEB8"></path>
                            <path d="M120.668702,19.1285688 C107.422457,5.63392379 85.3546233,5.13967548 71.476635,18.0265756 C57.5986467,30.9134757 57.0851801,52.3764865 70.3314254,65.8711315 C83.5780218,79.3657766 105.645504,79.8600249 119.523492,66.9731248 C133.40113,54.0865718 133.915298,32.6232139 120.668702,19.1285688 Z" id="Fill-25" fill="#1BCEB8"></path>
                            <path d="M70.2865015,16.8142094 C84.8523876,3.28902097 108.012434,3.80791228 121.915341,17.9710421 C135.818248,32.1341718 135.27881,54.6603024 120.713626,68.1854909 C106.148091,81.7110265 82.9876931,81.1921352 69.0847861,67.0290054 C55.181879,52.8658756 55.7209663,30.339745 70.2865015,16.8142094 Z" id="Path" stroke="#FFFFFF" stroke-width="3" fill="#0DBFBA"></path>
                        </g>
                        <path d="M89.4100829,57.8656355 L77.5350713,45.9223465 C76.8216429,45.2048161 76.8216429,44.0414221 77.5350713,43.3238199 L80.1186714,40.7252932 C80.8320998,40.007691 81.9889143,40.007691 82.7023427,40.7252932 L90.7019186,48.7707922 L107.836119,31.5381478 C108.549547,30.8206174 109.706362,30.8206174 110.41979,31.5381478 L113.00339,34.1366745 C113.716819,34.8542049 113.716819,36.0175989 113.00339,36.7352011 L91.9937543,57.8657073 C91.2802545,58.5832377 90.1235114,58.5832377 89.4100829,57.8656355 Z" id="Shape" fill="#FFFFFF" fill-rule="nonzero"></path>
                    </g>
                </g>
            </g>
        </g>
    </g>
</svg>