<?xml version="1.0" encoding="UTF-8"?>
<svg width="115px" height="115px" viewBox="0 0 115 115" version="1.1" xmlns="http://www.w3.org/2000/svg" xmlns:xlink="http://www.w3.org/1999/xlink">
    <!-- Generator: Sketch 49.2 (51160) - http://www.bohemiancoding.com/sketch -->
    <title>Group 13</title>
    <desc>Created with Sketch.</desc>
    <defs></defs>
    <g id="Page-4" stroke="none" stroke-width="1" fill="none" fill-rule="evenodd">
        <g id="17-home" transform="translate(-239.000000, -2337.000000)">
            <g id="knowhow" transform="translate(163.000000, 2183.000000)">
                <g id="images-knowhow" transform="translate(0.000000, 112.000000)">
                    <g id="Group-7" transform="translate(0.000000, 6.000000)">
                        <g id="Group-13" transform="translate(76.000000, 36.000000)">
                            <g id="loading">
                                <path d="M102,57.4992787 C102,82.0769091 82.0769091,102 57.4992787,102 C32.9230909,102 13,82.0769091 13,57.4992787 C13,32.9230909 32.9230909,13 57.4992787,13 C82.0769091,13 102,32.9230909 102,57.4992787 Z" id="Fill-1" fill="#EFF4F4"></path>
                                <path d="M57,13 C81.8341254,13 102,32.9421326 102,57.4992787 C102,82.0578674 81.8341254,102 57,102" id="Fill-2" fill="#E4EDED"></path>
                                <path d="M27,70.2439995 C25.7154064,67.1509585 24.7958715,63.6722689 24.4293778,60 L0,60 C0.551606114,68.3106224 2.57177023,76.0423188 5.87767597,83 L27,70.2439995 Z" id="Fill-3" fill="#DFEFEF"></path>
                                <path d="M13,60 C13.3581474,65.2947502 14.7943828,70.4116577 17.1280901,75 L27,69.3528731 C25.7432589,66.528896 24.8460676,63.3528179 24.4879202,60 L13,60 Z" id="Fill-4" fill="#D4E8E7"></path>
                                <path d="M55,115 L55,90.5716609 C51.3277311,90.2037478 48.0423188,89.285687 44.7569065,88 L32,109.122287 C38.9588892,112.428339 46.6893776,114.448417 55,115 Z" id="Fill-5" fill="#DFEFEF"></path>
                                <path d="M38,97.8186356 C42.588404,100.000365 47.5292106,101.453999 53,102 L53,90.5456353 C49.6469355,90.1817296 46.647101,89.2729597 43.6472664,88 L38,97.8186356 Z" id="Fill-6" fill="#D4E8E7"></path>
                                <path d="M60,0 L60,24.4293778 C63.6722689,24.7958715 66.9588892,25.7154064 70.2439995,27 L83,5.87767597 C76.0423188,2.57177023 68.3106224,0.551606114 60,0 Z" id="Fill-7" fill="#1BCEB8"></path>
                                <path d="M60,13 L60,24.4552428 C63.3528179,24.818049 66.3535348,25.7283317 69.3528731,27 L75,16.9996753 C70.4116577,14.8177243 65.2947502,13.3628062 60,13 Z" id="Fill-8" fill="#0DBFBA"></path>
                                <path d="M0,55 L24.4293778,55 C24.7958715,51.3277311 25.7154064,48.0423188 27,44.7569065 L5.87767597,32 C2.57177023,38.9588892 0.551606114,46.6893776 0,55 Z" id="Fill-9" fill="#DFEFEF"></path>
                                <path d="M13,53 L24.4552428,53 C24.818049,49.6469355 25.7283317,46.647101 27,43.6472664 L16.9996753,38 C14.8177243,42.588404 13.3628062,47.7059635 13,53 Z" id="Fill-10" fill="#D4E8E7"></path>
                                <path d="M70.2439995,88 C67.1509585,89.285687 63.6722689,90.2037478 60,90.5716609 L60,115 C68.3106224,114.448417 76.0423188,112.428339 83,109.122287 L70.2439995,88 Z" id="Fill-11" fill="#1BCEB8"></path>
                                <path d="M75,98.0006493 L69.3528731,88 C66.528896,89.2727014 63.3528179,90.1814898 60,90.545687 L60,102 C65.2947502,101.636087 70.4116577,100.182423 75,98.0006493 Z" id="Fill-12" fill="#0DBFBA"></path>
                                <path d="M44.7569065,27 C47.8490415,25.7154064 51.3277311,24.7958715 55,24.4293778 L55,0 C46.6893776,0.551606114 38.9588892,2.57177023 32,5.87767597 L44.7569065,27 Z" id="Fill-13" fill="#DFEFEF"></path>
                                <path d="M38,16.9996753 L43.6472664,27 C46.4706239,25.7283317 49.6469355,24.818049 53,24.4552428 L53,13 C47.7059635,13.3628062 42.588404,14.8177243 38,16.9996753 Z" id="Fill-14" fill="#D4E8E7"></path>
                                <path d="M77,29.8623134 C79.7264758,31.8762842 82.0904442,34.2557038 84.0902007,37 L105,24.9218938 C100.818381,18.5159623 95.3628726,13.2089503 89.1814972,9 L77,29.8623134 Z" id="Fill-15" fill="#1BCEB8"></path>
                                <path d="M83.1264628,20 L77,30.5316157 C79.8714428,32.6388963 82.3611037,35.1285572 84.4671875,38 L95,31.8723404 C91.7437832,27.2765957 87.7231051,23.2562168 83.1264628,20 Z" id="Fill-16" fill="#0DBFBA"></path>
                                <path d="M115,60 L90.5716609,60 C90.2037478,63.6722689 89.285687,66.9588892 88,70.2439995 L109.122287,83 C112.428339,76.0423188 114.448417,68.3106224 115,60 Z" id="Fill-17" fill="#1BCEB8"></path>
                                <path d="M97.8186356,75 C100.000365,70.4116577 101.453999,65.4701114 102,60 L90.5456353,60 C90.1817296,63.3528179 89.2729597,66.3535348 88,69.3528731 L97.8186356,75 Z" id="Fill-18" fill="#0DBFBA"></path>
                                <path d="M84.1365428,77 C82.1237158,79.7264758 79.7442962,82.0904442 77,84.0902007 L89.0781062,105 C95.4828938,100.818381 100.79105,95.3628726 105,89.1814972 L84.1365428,77 Z" id="Fill-19" fill="#1BCEB8"></path>
                                <path d="M84.4671875,77 C82.3611037,79.8714428 79.8714428,82.3611037 77,84.4671875 L83.1264628,95 C87.7231051,91.7437832 91.7437832,87.7231051 95,83.1264628 L84.4671875,77 Z" id="Fill-20" fill="#0DBFBA"></path>
                                <path d="M37,84.0902007 C34.2735242,82.0904442 31.9095558,79.7264758 29.9086629,77 L9,89.1814972 C13.1813348,95.5449786 18.635991,100.818381 24.8182187,105 L37,84.0902007 Z" id="Fill-21" fill="#DFEFEF"></path>
                                <path d="M30.5316157,77 L20,83.1264628 C23.2562168,87.7231051 27.2765957,91.7437832 31.8723404,95 L38,84.4671875 C35.1285572,82.3611037 32.6388963,79.8714428 30.5316157,77 Z" id="Fill-22" fill="#D4E8E7"></path>
                                <path d="M29.9086629,37 C31.9095558,34.2735242 34.2735242,31.9095558 37,29.9086629 L24.8182187,9 C18.4550214,13.1813348 13.1813348,18.635991 9,24.8182187 L29.9086629,37 Z" id="Fill-23" fill="#DFEFEF"></path>
                                <path d="M20,31.8723404 L30.5316157,38 C32.6388963,35.1285572 35.1285572,32.6388963 38,30.5316157 L31.8723404,20 C27.2765957,23.2562168 23.2562168,27.2765957 20,31.8723404 Z" id="Fill-24" fill="#D4E8E7"></path>
                                <path d="M88,44.7569065 C89.285687,48.0423188 90.2037478,51.3277311 90.5716609,55 L115,55 C114.448417,46.6893776 112.428339,38.9588892 109.122287,32 L88,44.7569065 Z" id="Fill-25" fill="#1BCEB8"></path>
                                <path d="M90.6927607,53 L102,53 C101.64076,47.7059635 100.205761,42.588404 97.8722407,38 L88,43.6472664 C89.4361203,46.4706239 90.3332399,49.6469355 90.6927607,53 Z" id="Fill-26" fill="#0DBFBA"></path>
                            </g>
                            <path d="M36.9238281,73 L36.9238281,46.9492188 L32.6191406,46.9492188 L32.6191406,43.3867188 C33.8313863,43.2506504 34.9910426,42.7898802 36.0981445,42.0043945 C37.2052464,41.2189088 38.0061824,40.2695368 38.5009766,39.15625 L42.0634766,39.15625 L42.0634766,73 L36.9238281,73 Z M61.7314453,65.3554688 C61.7314453,67.6067821 60.9397866,69.5148034 59.3564453,71.0795898 C57.7731041,72.6443763 55.87436,73.4267578 53.6601562,73.4267578 C51.4088429,73.4267578 49.4977292,72.6381915 47.9267578,71.0610352 C46.3557864,69.4838788 45.5703125,67.5820424 45.5703125,65.3554688 L45.5703125,46.8193359 C45.5703125,44.5680226 46.3619712,42.6569089 47.9453125,41.0859375 C49.5286538,39.5149661 51.4335826,38.7294922 53.6601562,38.7294922 C55.9114696,38.7294922 57.8194909,39.5211509 59.3842773,41.1044922 C60.9490638,42.6878334 61.7314453,44.5927623 61.7314453,46.8193359 L61.7314453,65.3554688 Z M56.4433594,46.7080078 C56.4433594,45.9039673 56.1557646,45.2143583 55.5805664,44.6391602 C55.0053682,44.063962 54.3095744,43.7763672 53.4931641,43.7763672 C52.6891236,43.7763672 52.002607,44.063962 51.4335938,44.6391602 C50.8645805,45.2143583 50.5800781,45.9039673 50.5800781,46.7080078 L50.5800781,65.28125 C50.5800781,66.0852905 50.8645805,66.7748995 51.4335938,67.3500977 C52.002607,67.9252958 52.6891236,68.2128906 53.4931641,68.2128906 C54.3095744,68.2128906 55.0053682,67.9252958 55.5805664,67.3500977 C56.1557646,66.7748995 56.4433594,66.0852905 56.4433594,65.28125 L56.4433594,46.7080078 Z M81.3994141,65.3554688 C81.3994141,67.6067821 80.6077553,69.5148034 79.0244141,71.0795898 C77.4410728,72.6443763 75.5423288,73.4267578 73.328125,73.4267578 C71.0768117,73.4267578 69.165698,72.6381915 67.5947266,71.0610352 C66.0237552,69.4838788 65.2382812,67.5820424 65.2382812,65.3554688 L65.2382812,46.8193359 C65.2382812,44.5680226 66.02994,42.6569089 67.6132812,41.0859375 C69.1966225,39.5149661 71.1015514,38.7294922 73.328125,38.7294922 C75.5794383,38.7294922 77.4874596,39.5211509 79.0522461,41.1044922 C80.6170326,42.6878334 81.3994141,44.5927623 81.3994141,46.8193359 L81.3994141,65.3554688 Z M76.1113281,46.7080078 C76.1113281,45.9039673 75.8237333,45.2143583 75.2485352,44.6391602 C74.673337,44.063962 73.9775431,43.7763672 73.1611328,43.7763672 C72.3570923,43.7763672 71.6705758,44.063962 71.1015625,44.6391602 C70.5325492,45.2143583 70.2480469,45.9039673 70.2480469,46.7080078 L70.2480469,65.28125 C70.2480469,66.0852905 70.5325492,66.7748995 71.1015625,67.3500977 C71.6705758,67.9252958 72.3570923,68.2128906 73.1611328,68.2128906 C73.9775431,68.2128906 74.673337,67.9252958 75.2485352,67.3500977 C75.8237333,66.7748995 76.1113281,66.0852905 76.1113281,65.28125 L76.1113281,46.7080078 Z" id="100" fill="#00CFB8"></path>
                        </g>
                    </g>
                </g>
            </g>
        </g>
    </g>
</svg>