<?xml version="1.0" encoding="UTF-8"?>
<svg width="106px" height="123px" viewBox="0 0 106 123" version="1.1" xmlns="http://www.w3.org/2000/svg" xmlns:xlink="http://www.w3.org/1999/xlink">
    <!-- Generator: Sketch 49.2 (51160) - http://www.bohemiancoding.com/sketch -->
    <title>Group 16</title>
    <desc>Created with Sketch.</desc>
    <defs></defs>
    <g id="Page-4" stroke="none" stroke-width="1" fill="none" fill-rule="evenodd">
        <g id="17-home" transform="translate(-644.000000, -2332.000000)">
            <g id="knowhow" transform="translate(163.000000, 2183.000000)">
                <g id="images-knowhow" transform="translate(0.000000, 112.000000)">
                    <g id="Group-7" transform="translate(395.000000, 1.000000)">
                        <g id="Group-16" transform="translate(86.000000, 36.000000)">
                            <path d="M88.2480773,8.69760615 C88.2480773,6.99853038 88.47291,5.34955321 88.8883618,3.78061161 C77.0687574,1.7650593 61.3255771,0 52.6438558,0 C44.2321783,0 29.1946551,1.65630867 17.517404,3.59243637 C17.9652366,5.21758616 18.2096201,6.9288811 18.2096201,8.69760615 C18.2096201,18.962932 10.1406903,27.3416178 0,27.8413819 C1.24879931,44.7740985 5.61287635,67.7986831 10.7559256,80.2243584 C19.2751318,100.814273 48.7379977,118.917586 52.6438558,122.113511 C56.5466592,118.917586 86.0119689,100.814273 94.5293423,80.2243584 C99.6815559,67.7760776 104.052964,44.6861205 105.291988,27.7466833 C95.7060485,26.6878921 88.2480773,18.563976 88.2480773,8.69760615" id="Fill-211" fill="#1BCEB8"></path>
                            <path d="M52.3088807,10 C46.6526263,10 36.9780974,10.8638954 27.2980699,12.1780673 C26.1855143,22.7018286 19.40754,31.5619497 10,35.5698379 C10.899331,43.2000995 12.271544,51.2128211 13.8759211,58.453291 C15.5163449,65.8526102 17.4011521,72.4411874 19.2767949,76.9745 C24.9501561,90.6862431 43.2159844,104.299622 52.3088807,110.742791 L52.3369848,110.722629 L52.3369848,10 L52.3088807,10" id="Fill-212" fill="#DFEFEF"></path>
                            <path d="M78.1722431,12.3430261 C68.1671856,10.9482077 57.8792543,10.0036658 52,10 L52,110.722629 C61.1020607,104.268463 79.3336753,90.6697472 85.000927,76.9745 C86.8802355,72.4350778 88.7638208,65.8489445 90.4036336,58.453291 C92.0452792,51.0545828 93.4394867,42.8451325 94.3375958,35.0657971 C85.5239075,30.8624022 79.2890753,22.341363 78.1722431,12.3430261" id="Fill-213" fill="#DFEFEF"></path>
                            <g id="Group-3" transform="translate(36.000000, 30.000000)">
                                <path d="M31.140592,21 L3.86042071,21 C1.73678424,21 0,22.7024372 0,24.7798869 L0,47.2211052 C0,49.300539 1.73678424,51 3.86042071,51 L31.140592,51 C33.2642285,51 35,49.300539 35,47.2211052 L35,24.7798869 C35,22.7024372 33.2642285,21 31.140592,21" id="Fill-589" fill="#0DBFBA"></path>
                                <path d="M29,21 L25.6978494,20.9852348 L25.6978494,9.91628387 C25.6978494,6.2702728 22.7349609,3.30345927 19.0945316,3.30345927 L15.9054684,3.30345927 C12.2630724,3.30345927 9.30116722,6.2702728 9.30116722,9.91628387 L9.30116722,20.9852348 L6,20.9852348 L6,9.91628387 C6,4.44726727 10.4428578,0 15.9054684,0 L19.0945316,0 C24.5561589,0 29,4.44726727 29,11.0522171 L29,21" id="Fill-590" fill="#1BCEB8"></path>
                                <path d="M24.7915598,42.5330173 L20.3945544,35.2651541 C22.0315901,34.4422621 23.1492022,32.8046055 23.1492022,30.9160176 C23.1492022,28.2004741 20.843728,26 17.9996713,26 C15.1545501,26 12.8501404,28.2004741 12.8501404,30.9160176 C12.8501404,32.8046055 13.9666881,34.4422621 15.6037238,35.2651541 L11.2088472,42.5330173 C10.720291,43.3396546 11.1183738,44 12.0954861,44 L23.9038565,44 C24.8799044,44 25.280116,43.3396546 24.7915598,42.5330173" id="Fill-591" fill="#FFFFFF"></path>
                            </g>
                        </g>
                    </g>
                </g>
            </g>
        </g>
    </g>
</svg>