<svg height="81" viewBox="0 0 94 81" width="94" xmlns="http://www.w3.org/2000/svg"><g fill="#0dbfba" transform="translate(-5.433479)"><path d="m41.8328696 61.6766445c-1.6181067-1.604991-3.6473717-1.604991-5.2654784 0-1.2334748 1.2203238-2.4669496 2.4406476-3.6738981 3.6875001-.3315792.3448741-.6101058.4111961-1.0212641.1857015-.7957902-.4377249-1.6446331-.782599-2.4138969-1.260117-3.5677927-2.2416817-6.5652691-5.1333184-9.2179031-8.3963581-1.3130538-1.6182554-2.4934759-3.342626-3.3025293-5.2924911-.159158-.3979317-.1458949-.6499551.1856844-.9683004 1.2334748-1.193795 2.4404232-2.4141188 3.6473717-3.6344425 1.6844226-1.6978418 1.6844226-3.6875001-.0132632-5.3986063-.9549482-.9683003-1.9231596-1.9366007-2.891371-2.8916367-.9947378-.9948292-1.9762123-1.9896583-2.9842132-2.9844875-1.6313699-1.5917267-3.6473718-1.604991-5.27874166 0-1.2334748 1.2203238-2.44042327 2.4804407-3.68716124 3.6742357-1.16715895 1.1142087-1.76400159 2.4671763-1.88337012 4.058903-.18568438 2.5732914.4376846 5.0139389 1.32631699 7.3882645 1.83031744 4.9078239 4.60231996 9.2585434 7.95790193 13.2643888 4.5360041 5.4118706 9.9739038 9.6830038 16.3269622 12.7736064 2.8515815 1.3927608 5.8225316 2.4539119 9.0454818 2.626349 2.2149494.1193795 4.1513722-.4377248 5.6898999-2.1620954 1.0610536-1.1805306 2.2414758-2.2549461 3.3688452-3.3824191 1.6578962-1.671313 1.6711594-3.7007645.0265263-5.3588131-1.9894754-1.9896583-3.9656878-3.9527878-5.9419001-5.9291818z" transform="matrix(.98480775 .17364818 -.17364818 .98480775 10.13117 -3.750537)"/><path d="m95.4163959 10.573309c-2.6788761-3.26432732-6.317635-5.8427436-10.9153384-7.73501627-4.5975861-1.89204012-9.6205228-2.83829273-15.067051-2.83829273-4.0627022 0-7.9466797.55870531-11.6519326 1.67634848-3.7052529 1.11752689-6.8970828 2.62806605-9.5757244 4.53126865-2.6791107 1.90343515-4.8103201 4.16639517-6.3953873 6.78876367-1.5850672 2.6224848-2.3774835 5.3725242-2.3774835 8.249653 0 3.3195584 1.0097239 6.4300528 3.0299927 9.3292741 2.0202687 2.8988724 4.7821744 5.3336881 8.2870071 7.3034004-.2458051.8849753-.5359394 1.7262308-.8708722 2.5223714-.3348156.7967219-.6360909 1.4504245-.9039434 1.9593638-.2680869.5089392-.6304617 1.0735746-1.0884143 1.6932084-.457249.6195176-.8032055 1.056831-1.037635 1.3110099-.234195.254644-.6192035.6757951-1.1552602 1.2614764-.5353531.5869603-.8815441.9684612-1.037635 1.1458981-.0226338.0103486-.1117615.1106946-.2679697.2984801-.1560909.1877854-.2344295.2817363-.2344295.2817363l-.2008893.2983637c-.1117616.1663907-.1619546.2713878-.1509309.3147587.0112583.0433709-.0110237.1547631-.0668458.3315023-.0559394.1774369-.050193.3103402.0166528.3991749v.0330223c.0897141.3987098.2849743.7193985.5861324.962415.3011581.243249.6419546.3430137 1.0212167.2980149 1.4512583-.1769718 2.72344-.4192906 3.8170144-.729747 5.8484242-1.4834469 10.9825361-4.1605814 15.4019839-8.0343103 1.6737259.1769718 3.2920987.2658066 4.8546494.2658066 5.446411 0 10.4691131-.9462526 15.0671684-2.8391067 4.5980552-1.8920401 8.2364622-4.4705727 10.9148692-7.7343186 2.6788762-3.262932 4.0181383-6.8210884 4.0181383-10.6719109.0001173-3.8509389-1.3390276-7.4088626-4.0170828-10.6726086zm-25.9524928-.5732273c1.655127.0120721 2.9816626 1.352076 2.9694926 3.0180268-.0121701 1.6538787-1.3630458 2.9938827-2.9816626 2.9818106-1.6794671-.0120721-3.0303428-1.3762203-3.0181728-3.030099.0121701-1.6538787 1.3630458-2.98181055 3.0303428-2.9697384zm3.9501294 20.3919072c-.0600951.2655635-.2283614.543773-.4086468.7461071-1.0817121 1.1507752-2.3677477 1.8336528-3.9182017 1.8589446-.7211415.0126459-1.4543019-.0126459-2.1634243-.1264588-1.1898834-.1770424-2.6922614-1.71984-2.4759189-3.3764505.1442282-1.1254835.3124946-2.250967.4927799-3.3764505.3124947-1.9474658.6490273-3.9075775.973541-5.8550433.024038-.1264588.024038-.2529176.024038-.3793764 0-.8219824-.2403805-1.1001918-1.009598-1.2140047-.3245136-.0505835-.6730653-.0758753-.9735409-.1896882-.3846088-.1391047-.5528751-.4552518-.516818-.7840447.036057-.3414388.2403804-.5564188.6610463-.64494.2163424-.0505835.4447039-.0505835.6730653-.0505835h2.7283184 2.8965848c.6971033 0 1.1057501.3414388 1.1297882 1.0749.012019.6070023-.0841332 1.2140046-.1923044 1.821007-.3725897 2.2256752-.7692175 4.4513504-1.1538263 6.6896715-.1322092.7334611-.2764375 1.4795682-.3485517 2.2130293-.036057.3540847.0120191.7334612.0961522 1.0749.1081712.4678976.4447039.7208152.8894078.6702317.3725897-.0505835.7451795-.1896882 1.1057502-.3287929.2884566-.113813.5408561-.3287929.8413316-.4426059.3966278-.1643964.7571985.1517506.6490273.6196482z"/></g></svg>