<svg viewBox="0 0 28 32" xmlns="http://www.w3.org/2000/svg"><path d="m28 32s-4.7136734-1.8549333-8.5272182-3.3408h-16.03529073c-1.89827118 0-3.43749107-1.632-3.43749107-3.6448v-21.3696c0-2.0128 1.53921989-3.6448 3.43749107-3.6448h21.12401773c1.8982712 0 3.4374911 1.632 3.4374911 3.6448v18.4042667h.0010001zm-4.1385912-11.9818667c-.3304865-.4076091-.9073276-.4547497-1.2921846-.1056-.0300043.0266667-3.0154308 2.6816-8.5702243 2.6816-5.48578373 0-8.51721679-2.6357333-8.5712245-2.6837333-.38482421-.3474572-.96016549-.2998905-1.29018432.1066667-.15846057.1954249-.23714168.4502728-.21854751.7078748s.13292218.4966032.31756166.6638585c.14202029.128 3.53750536 3.1498667 9.76239467 3.1498667 6.2258894 0 9.6213744-3.0218667 9.7633947-3.1498667.1843396-.1672274.2984696-.4060095.3170593-.6633493s-.0598988-.5119488-.2180451-.7073174z" fill="#fff"/></svg>