<svg height="49" viewBox="0 0 130 49" width="130" xmlns="http://www.w3.org/2000/svg"><g fill="#0dbfba" fill-rule="evenodd"><path d="m111.739226 0-6.375217 16.2940552 5.097563 14.4224205h-10.7413755l-3.7201965 9.5074889h17.412949l3.12035 8.7760354h13.466701z"/><path d="m90.8038922 0-13.6158728 31.665018-9.682237-31.665018h-10.1432875l-10.3961387 31.665018-7.3314466-14.4290519-6.6349096 20.2885734 6.7362627 11.4754605h12.9864911l9.3944791-28.3966161 8.9575266 28.3966161h13.0206889l19.9045516-49z"/><path d="m23.112593 11.3252875c1.1694221 1.1752974 1.7542211 2.748215 1.7542211 4.718577 0 1.9856416-.5144473 3.5603154-1.5428141 4.7243728-1.1273869 1.2931433-3.2036432 1.9398028-6.2280653 1.9398028h-4.6625628v-13.14587451h4.6966834c2.818995 0 4.8131156.58782441 5.9825377 1.76312191zm-10.6792211 20.8771612h8.0679397c2.4440201 0 4.6201758-.2723978 6.5286432-.8171935l2.0864573-6.419 5.8314572-17.93962007c-.4442713-.70321147-.9516834-1.36813621-1.5217085-1.99459857-2.9941709-3.30934409-7.374799-4.96392832-13.1420603-4.96392832h-20.28417085v48.93168096h12.43344225z"/></g></svg>