<svg height="37" viewBox="0 0 30 37" width="30" xmlns="http://www.w3.org/2000/svg"><path d="m34.4932964 26.94375c-1.3685697-1.40625-5.2586823-4.040625-7.8083464-4.040625-.5905472 0-1.1061043.13125-1.5279237.403125-1.2467108.796875-2.2403299 1.415625-2.7183919 1.415625-.2624654 0-.5436784-.234375-1.1623469-.76875l-.1031114-.09375c-1.715399-1.490625-2.0809759-1.875-2.7465132-2.56875l-.1687278-.178125c-.1218589-.121875-.2249703-.234375-.3280818-.3375-.5811734-.6-1.0029928-1.03125-2.4934215-2.71875l-.0656164-.075c-.7124061-.80625-1.1810944-1.33125-1.2092157-1.715625-.0281213-.375.2999605-.984375 1.1342256-2.11875 1.0123667-1.36875 1.0498617-3.05625.121859-5.015625-.7405275-1.546875-1.9497432-3.028125-3.0183524-4.33125l-.0937377-.1125c-.9186289-1.125-1.9872382-1.6875-3.17770635-1.6875-1.32170089 0-2.41843142.7125-2.99960486 1.0875-.04686882.028125-.09373765.065625-.14060648.09375-1.30295335.825-2.24970363 1.959375-2.60590671 3.1125-.53430462 1.734375-.89050769 3.984375 1.6685302 8.6625 2.21220858 4.05 4.21819432 6.76875 7.4052745 10.040625 2.9996048 3.075 4.3306795 4.06875 7.3115368 6.225 3.3183129 2.4 6.505393 3.778125 8.7363491 3.778125 2.0716021 0 3.7026373 0 6.027331-2.803125 2.437179-2.94375 1.4248123-4.74375-.037495-6.253125z" fill="#fff" transform="matrix(.98480775 .17364818 -.17364818 .98480775 -.317612 -4.089891)"/></svg>