<svg height="230" viewBox="0 0 303 230" width="303" xmlns="http://www.w3.org/2000/svg"><g fill="#0dbfba"><g transform="translate(0 31)"><path d="m99.885501 178.75182c-10.9807261-.190179-16.6019475-5.5323-19.4599707-14.748363-2.397174-7.757391-3.5559346-15.931274-5.3386431-23.897862-1.4925443-6.715212.3280942-10.726082 7.3110015-13.601585 11.7620834-4.828639 20.9790663-13.118531 27.9752483-25.198685-11.6179491 7.593838-36.321738 26.24657-36.7067272 21.358976 0-16.771864 9.4369763-36.345062 14.5404537-52.664301-26.9625186 37.04492-33.6097457 61.703497-14.0966731 104.885485-4.4529783-1.093527-6.5258511.859608-7.6428887-.129321-10.6678039-9.444277-21.5859455 1.886573-32.5382241 9.697215-1.3768579.977518-.9501457 7.576721-.4513666 7.68132 10.7607322 2.510359 21.5726699 5.374451 32.519259 6.273997 11.4491612.948992 23.1202127.741697 34.525754-.52109 9.488182-1.040278 18.716544-4.358897 29.477276-7.002382-8.981817-12.791423-20.235639-11.985065-30.114499-12.133404z"/><path d="m118.509814 84.6045762c-6.044881 3.5208477-9.623911 9.2042561-9.507037 14.2094764.026823 1.5435944 12.850403-4.2219606 13.624454-2.9114335.931161 1.589444-10.110567 10.0390959-8.430263 10.8510119 4.299435 2.084235 10.593392 1.581802 16.285736-1.713619 7.88038-4.594487 14.517296-22.1547863 14.517296-22.1547863s-18.596394-2.8674945-26.490186 1.7193505z"/><path d="m109.902682 75.0952738c3.225068 1.5152915 7.944679 1.1481175 12.211515-1.2599471 5.909107-3.3511612 10.885803-16.1854748 10.885803-16.1854748s-13.945876-2.0986694-19.866495 1.2469003c-4.529676 2.5869921-7.223307 6.7321436-7.131217 10.3908363.026859 1.1313431 9.638751-3.0864977 10.216232-2.1210353.698349 1.1611643-7.589749 7.3285683-6.315838 7.9287206z"/><path d="m137.280503 60.3994452c-3.360048 1.9022249-5.342966 4.9581393-5.279001 7.6506868.013169.8357435 7.132108-2.2655916 7.564813-1.5570265.513602.852095-5.632691 5.4032635-4.686384 5.8374868 2.394928 1.1191695 5.890432.852095 9.052942-.9302189 4.377846-2.4654434 8.067127-11.9184292 8.067127-11.9184292s-10.328481-1.5533928-14.719497.917501z"/><path d="m147.010519 90.8949391c-.269672.5264936 4.735073 1.0312963 4.748092 1.6130027 0 .7019913-4.924774 1.4059546-4.543513 1.9935765.955942 1.4946895 3.003591 2.5102107 5.358109 2.4983794 3.260245-.0374658 8.426793-4.5747752 8.426793-4.5747752s-5.24466-4.4604057-8.504905-4.4249118c-2.505162.0276064-4.632783 1.2383443-5.484576 2.8947284z"/><path d="m159.612612 68.0875914c-2.809526.5413933-4.960876 2.2702292-5.607263 4.260705-.20433.6198853 5.512958.1489335 5.632805.7829071.133599.74668-5.2713 2.5238186-4.738865 3.0893633 1.35761 1.4188933 3.852783 2.1212958 6.481557 1.6161295 3.650419-.7003898 8.619154-6.6778551 8.619154-6.6778551s-6.727145-3.7756649-10.387388-3.0712498z"/><path d="m91.8808971 90.3256829c2.3880556 1.1277739 5.8901607.8553647 9.0572979-.9261911 4.379043-2.469843 8.061805-11.9206245 8.061805-11.9206245s-10.3275406-1.5472839-14.7197563.920743c-3.3628489 1.905048-5.3463088 4.9578465-5.2785625 7.6492489.0131728.831756 7.1321754-2.2664441 7.5687624-1.5599964.5175061.8553648-5.6248212 5.3991494-4.6895465 5.8368201z"/><path d="m109.360036 48.6329759c.29041.8111656 6.187097-4.4567057 6.846772-3.882679.788533.6718935-3.700334 7.0558233-2.646393 7.1875672 2.698321.3764109 6.015928-.9692582 8.504614-3.7132941 3.448389-3.7772839 3.934971-14.22457 3.934971-14.22457s-10.556723 1.6562082-14.005111 5.4466665c-2.648316 2.9228311-3.581093 6.5495506-2.634853 9.1863094z"/><path d="m142.21478 44.7502969c.775505.6718935-3.702412 7.0558233-2.647879 7.1875672 2.692138.3764109 6.019306-.9692582 8.509389-3.7132941 3.436854-3.7772839 3.92371-14.22457 3.92371-14.22457s-10.56265 1.6618544-14.012974 5.4523127c-2.634409 2.9171849-3.567709 6.5495506-2.634409 9.1881914.28865.8055194 6.202117-4.4623519 6.862163-3.8902072z"/><path d="m109.206201 25.7428058c.788581.6790672-3.700564 7.0521413-2.652327 7.1969839 2.696564.3705713 6.022071-.9819199 8.510911-3.7113563 3.448602-3.780956 3.935215-14.2284334 3.935215-14.2284334s-10.557377 1.6609871-14.005979 5.4494674c-2.652327 2.9100194-3.579391 6.5404895-2.633093 9.1758723.290428.803218 6.18748-4.4562611 6.845273-3.8825339z"/><path d="m87.2465582 28.9818803c1.062493.5082907 1.677016-9.8455726 2.8314003-9.9014287 1.4013421-.072613 3.2008798 10.0615496 4.3533497 9.2237077 2.9098907-2.0871571 4.7955765-6.3880786 4.5467043-11.2401138-.3005611-6.7101822-9.8036517-17.0640455-9.8036517-17.0640455s-8.4961152 11.1637771-8.1649237 17.8981636c.2527011 5.1611058 2.8371435 9.4471323 6.2371211 11.0837167z"/><path d="m79.3125689 50.9960294c.8236173.200884-.3899427-7.2866102.4081643-7.5057563.9457022-.2629754 3.8046748 6.6876106 4.4478981 5.9279039 1.7110103-1.959532 2.3196125-5.2996849 1.4121757-8.7311487-1.2846244-4.7463408-9.5025761-10.6870283-9.5025761-10.6870283s-4.1180867 9.2753617-2.8279958 14.0271812c.9839676 3.6524362 3.4438866 6.3205408 6.0623338 6.9688482z"/><path d="m34.2313108 58.3568874c3.640897 1.2046732 7.2892281.6554575 9.3392074-1.1344457.6263309-.5582192-6.3822564-3.6932508-6.1090497-4.467555.3215289-.9273643 7.8114803.5672228 7.5308395-.3907535-.6635019-2.4687698-3.1390888-4.8276965-6.5532429-5.9531386-4.748592-1.5774197-14.4390651 1.8943442-14.4390651 1.8943442s5.4882944 8.4867339 10.2313108 10.0515486z"/><path d="m10.2252141 48.3590598c3.6400499 1.1998344 7.283816.6557653 9.3370345-1.1367801.6168947-.5548784-6.3751971-3.6931841-6.1076283-4.4750582.3177379-.9277999 7.8059467.5801002 7.5383779-.3855324-.6837868-2.4627232-3.1513653-4.8173533-6.5554344-5.9523318-4.74748717-1.5727559-14.4375638 1.8934325-14.4375638 1.8934325s5.47215257 8.4889187 10.2252141 10.05627z"/><path d="m32.9844873 97.8168589c.4007234-.7527883-7.095161-1.4888892-7.095161-2.3380938-.0253852-1.0086622 7.3834643-2.0210328 6.8104842-2.8516958-1.4433294-2.1693654-4.5040582-3.6526922-8.0289734-3.6267339-4.8920891.0315207-12.6708371 6.5970958-12.6708371 6.5970958s7.8657829 6.4394928 12.757872 6.4024088c3.7624481-.040791 6.9392235-1.765158 8.2266153-4.1829811z"/><path d="m22.9844974 72.8156552c.4006544-.7384754-7.0975643-1.4862281-7.1084418-2.3267541-.0126904-1.0112288 7.3821921-2.0224577 6.8111237-2.8537064-1.4430808-2.1838832-4.4924047-3.660834-8.0185255-3.6348575-4.89124611.0352539-12.6686538 6.6017473-12.6686538 6.6017473s7.86624055 6.4458882 12.7592996 6.3976461c3.7472964-.027832 6.9362149-1.764548 8.2251978-4.1840754z"/><path d="m42.9884497 38.9732153c.9160576-.075737-3.0001885-7.1794824-2.2461411-7.682454.8900559-.6078383 6.3243975 5.410343 6.7224225 4.4102257 1.082068-2.5517554.5200327-6.1327578-1.654104-9.2632218-3.0281903-4.3325468-13.6628587-7.4377652-13.6628587-7.4377652s-.9720611 10.746891 2.0701301 15.0736118c2.3061449 3.3343715 5.8103652 5.173422 8.7705512 4.8996035z"/><path d="m65.991344 38.9732153c.9206154-.075737-3.0000055-7.1794824-2.2434997-7.682454.8905953-.6078383 6.3242276 5.410343 6.7244952 4.4102257 1.0647117-2.5517554.5203478-6.1327578-1.6531051-9.2632218-3.0300255-4.3325468-13.6711389-7.4377652-13.6711389-7.4377652s-.9726502 10.746891 2.067382 15.0736118c2.3115452 3.3343715 5.8178891 5.173422 8.7758665 4.8996035z"/><path d="m88.2906626 53.7403214c-.9636278 5.1249771.5404779 9.9226255 3.4505953 12.290049.8982319.7326833 3.8929793-9.2965143 5.0239436-9.0909824 1.3560032.2531088.7635933 10.5982166 2.0599708 10.038713 3.2986457-1.4063713 6.1029757-5.1972939 7.0165947-10.0158761 1.26945-6.6626605-5.516336-18.9622249-5.516336-18.9622249s-10.7730123 9.0643393-12.0347684 15.7403214z"/><path d="m60.2180667 62.7761843c3.1128437 4.3035356 7.7069717 6.6107249 11.5048363 6.1705248 1.1612175-.1274264-4.1315926-9.3716293-3.1655377-10.0396523 1.1319432-.8051029 8.3490568 6.9138452 8.8564796 5.5797298 1.2861216-3.3710063.4508256-8.0645438-2.4570974-12.117088-4.0340113-5.5990369-17.8690892-9.3696986-17.8690892-9.3696986s-.9094578 14.1655633 3.1304084 19.7761843z"/><path d="m46.0868881 89.8669706c6.5950529.7179786 12.5739915-1.5293677 15.3108164-5.3152395.8621843-1.1575573-12.164501-3.9562086-12.008594-5.3665237.1897182-1.6960413 13.3967296-1.8682096 12.5739915-3.4085668-2.0793858-3.9159139-7.1604505-7.0204387-13.3704319-7.709112-8.5748837-.950589-23.5926701 8.4490696-23.5926701 8.4490696s12.4950988 12.4034466 21.0868881 13.3503724z"/><path d="m63.9747102 100.652992c-1.4604098-2.8527727-5.024043-5.0981559-9.3839102-5.603661-6.037785-.6936-16.5908 6.15619-16.5908 6.15619s8.7702274 9.012882 14.8216066 9.694726c4.627868.530977 8.8246044-1.101139 10.7530445-3.863783.5981466-.83859-8.5468934-2.882163-8.4400815-3.90101.1262322-1.226536 9.4110988-1.355851 8.8401406-2.482462z"/></g><path d="m60.6056389 32.1704354c-4.8947731 3.3787647-8.2463085 3.7852769-8.2463085 3.7852769s.1266397-15.1411077-8.635063-18.6553765c-8.7587577-3.5113231-25.7638239-10.81381453-26.2821633-17.3003358 0 0-3.7343997 7.97706612.6449791 13.5180046 1.7965173 2.2711662 3.6313209 3.8589204 5.1804489 4.9429531.9188743.5213961 2.0704124.8572105 3.0010672 1.0310093 12.9260886 2.3536469 11.7156483 9.7062159 11.7156483 9.7062159s.1708164-3.0959736-4.4677321-6.4423351c-1.1809892-.8483734-3.0452439-1.7969019-6.5086935-2.1975227-2.3619784-.2857368-6.8974481.7246523-12.5284987-.2827911-6.05809166-1.0810869-12.75821732-5.272876-12.75821732-5.272876s-1.03078856 7.0285375 7.08593509 12.3043593c8.11966873 5.2699303 7.40400703 3.6851218 14.96704993 13.547462 1.1868794 1.5465139 6.4733522 4.6631077 6.4733522 4.6631077s-15.7681199 3.6880675-21.44040213 4.6307046c-5.66933709.9485285-12.49610249 3.3817104-6.44390107 7.9770661 6.05809164 4.5983014 6.70012566 5.4083801 12.4990476 4.5983014 5.7989219-.8100787 10.5670553-7.5676081 14.6872645-7.706058 0 0 16.6251469 1.3520951 21.9057295.1384499 5.2835276-1.216591 11.468259-3.1107023 13.0144419-14.0570752 0 0 .6449791-4.4627973 4.8947731-4.8663638 4.1820564-.397675 4.623823-1.3167462 4.6356034-1.3491493-.0176707 0-.241499-.091318-2.3148566-1.3550408-2.4444414-1.4934906-6.1847314-4.7396969-11.0795045-1.3579865z" transform="translate(229)"/></g></svg>