<svg height="49" viewBox="0 0 121 49" width="121" xmlns="http://www.w3.org/2000/svg"><g fill="#FFFFFF" fill-rule="evenodd"><path d="m13.8744359 9.99437313c-.1157984-.12951579-.6300219-.89266264-.7222681-1.07597729-.0588806-.11756048-.0667313-.177337-.0628059-.47223448.005888-.42042816.0510298-.67547463.1393506-.80100531.2060819-.29489748.8361039-.75916176 1.1815364-.86875204.2551491-.08169457.4141266-.07770947.6064697.01394785.2080447.09962753.5848802.49415254.7301189.76115431.1216865.22515821.2963654.72728095.3572087 1.02815608.0353283.177337.0333656.1892923-.0431791.30486023-.1000969.15342639-.5083354.61171302-.5475891.61171302-.0137388 0-.0942089.04981376-.1766417.10959027-.21197.15940405-.6202085.34869635-.9106859.42441323-.355246.0936499-.4376788.0876723-.5515145-.03586587zm2.168767 3.09841607c-.679089-.3985101-.9852679-.8408563-.9852679-1.4286587 0-.49216.461231-1.4226811.8204024-1.6478393.5750667-.36264421 1.1776111-.1335009 1.5289317.5798322.2237461.4503164.5927309 1.5521969.5927309 1.7673923 0 .2112104-.5397384.6575417-.9460142.7830724-.455343.1414711-.7006786.1295158-1.0107829-.0537989zm-8.09411335-5.67079882c-.09028351-.11158283-.16290286-.35467399-.16290286-.54197374 0-.29489748.02944028-.33674104.24337295-.33674104.34935795 0 .49067128.19925505.45338026.63960872-.03729101.45430152-.2767386.5599067-.53385035.23910606zm-.41608924-2.9888258c.00981343-1.84310925.04121639-1.98856544.51226081-2.28744802.40627582-.25903157 1.05199922-.40249521 1.40528254-.31083788.35917138.09364987.83806654.67746718.98723064 1.20150797.21197.75119155.111873 1.16564206-.4200146 1.76739233-.57702946.65355657-.79881288.75916175-1.7193122.81893827l-.77133525.05379886zm-3.14618423 44.43985462c-.78507404-.1952699-1.40331985-.5419737-1.81155836-1.0122156-.45338026-.5220483-1.02059625-1.5601671-1.02059625-1.8650273 0-.1215456-.10205963-.8308936-.22570879-1.574115-.17664166-1.0719922-.21589536-1.5621596-.18841777-2.3551947.03140296-.944469.05102981-1.0261635.31795499-1.4744874.59861895-1.0002604 1.71734947-2.5325317 2.30811768-3.1601852.53188767-.5638918.68497711-.6754746 1.12854394-.8049904.28066397-.0836871.64179803-.257039.80077553-.3865548.16094018-.1295158.45534294-.3566665.65749951-.5041153.48282054-.3506889 1.04611116-1.0341337 1.16583495-1.4067406.0529925-.1713594.20608194-.3666293.35524601-.4582867.14131333-.0856796.25907443-.2331284.25907443-.3247857 0-.0936499.03925371-.19527.08635815-.2251582.15112675-.0956424.59665627-1.0799624.69675321-1.5362565.04906713-.2351209.12953722-.7731096.17271629-1.1895527.04514176-.4184356.1452387-1.0122156.22570879-1.321061.16486555-.6495714.0922462-1.0142082-.34346989-1.7195711-.24729833-.4005026-.24729833-.4064803-.19234315-1.4465917.06084324-1.143724.08832083-1.0580443-.50244738-1.5701298-.27281323-.2371135-.2904774-.3486963-.0667313-.4224207.30617888-.0996275.36113406-.257039.20804462-.6017503-.11972379-.2709868-.19430582-.3307634-.49067127-.3785846-.19234314-.0338733-.54758915-.1733519-.78507405-.314823-.24141027-.141471-.63787266-.3168155-.88124561-.3905399-.73993229-.2231656-.95975302-.376592-1.01863357-.7153256-.04514176-.2450837-.12364917-.3347485-.40627582-.4662568-.42982804-.2012476-.55936526-.412458-.40627582-.6714896.13542527-.2271507.09617157-.2610241-1.0147082-.9066105-.42982804-.2490688-.96760376-.59378-1.19527523-.7671319-.461231-.3447113-1.42294671-1.498398-1.88417771-2.2535747l-.29636545-.4901674-.02944028-1.7016382c-.0255149-1.4386215-.00785074-1.7634072.11776111-2.1021408.08243278-.2211731.21393268-.7870574.29832814-1.2553068.08243277-.4702419.19430582-.9384913.24729832-1.042104.12364916-.23910602.61235776-.553929 1.07751413-.69540009.46319368-.14147109.49459664-.27098687.11579842-.50013019-.16879092-.10361262-.39449971-.33474849-.50441008-.51607059-.10598499-.17932954-.35917137-.53400354-.55740257-.78705746-.62609655-.79303511-.66535025-.92055835-.61432044-2.05232705.03925371-.95443171.05888056-1.03811883.41216388-1.79329549.51029813-1.09391024 1.20705134-1.79130293 2.3198938-2.32530648.68890247-.33275593.88909635-.38854735 1.36602883-.38854735 1.02255895 0 1.32481245.26899432 1.45631235 1.29515785.03140297.24707627.11776111.73126605.19430583 1.07597729.13346259.60175026.12953722.65554913-.05102981 1.38482262-.20804462.83288613-.2767386.98830507-.92442469 2.07424511-.24533564.40847287-.46908174.86277439-.50244739 1.01022313-.16879092.78705746-.45730563 1.01420822-.99508135.78307236-.42786535-.18331465-.80470089-.08567967-.94797691.24707627-.08635814.20324015-.0922462.30286768-.01766416.39253245.12364916.15342639.87339487.29290493 2.24334908.41445051 1.19331255.10560518 1.43079744.1733519 1.5681854.43836111.1314999.2510614.45338026.2311359.77526062-.0478212.22963416-.2012476.26692517-.29091238.26692517-.66351933 0-.5599067.05495519-.69340759.35132064-.85281163.35132063-.18729975.60254433-.16139659.85573071.08567967.19038045.18729975.3689848.23512097 1.28555874.3427187 1.15405885.13350088 1.33658855.08368712.92638735-.25305392-.2335595-.19128485-.2433729-.23312842-.2296341-.9105956.0078507-.50212273-.037291-.85878928-.1609402-1.22342603-.1314999-.39851011-.1511268-.59378006-.0942089-.86476693.2080446-.95841681 1.3424766-1.96465483 2.056894-1.8251763.3709475.07173182 1.2855587.77709471 1.4602377 1.12778361.1197238.23711351.1236492.32080064.0294403.5559216-.1491641.36862185-1.1383574 1.40275558-1.3424766 1.40474813-.0902835 0-.2885147.07970202-.4435669.177337-.2472983.15541894-.2806639.22316566-.2806639.55791415 0 .2092178.0588805.49614508.1295372.63562362.1295372.25903157.0549552.59577261-.1354253.59577261-.0471044 0-.1295372.09962753-.1825297.22117311-.0804701.1813221-.0726193.25504647.037291.38057715.0745821.08767223.1609402.25903157.1923432.38456226.0785074.32279323.5475891.67945973 1.0009694.75517663.7909621.137486.9499396.2968901 1.8095956 1.8351391.3434699.6137055.7261935 1.2294036.8518054 1.3648971.1236491.1354934.5122608.3865548.8596561.5559216.467119.2291433.6574995.376592.7281561.5579141.0529925.1354935.206082.510093.3415072.8289011.3630968.8567967.4416042 1.6259212.3316938 3.2398871-.111873 1.6498319-.3434699 3.0386396-.5888055 3.5367772-.1020596.2032402-.1825297.4264059-.1825297.4961451 0 .2231657-.6751637 1.516331-1.0323724 1.9805953-.4553429.5917875-1.3051856 1.9786026-1.3051856 2.132029 0 .0657542.0726194.1872998.1609402.2709869.3729102.3486964.2826266 2.0025133-.1550521 2.8632951-.1452387.2849348-.2649625.6077279-.2649625.7173182 0 .1075978-.0569179.2729794-.1275746.3706144-.0686939.0956425-.1295372.2530539-.1295372.3506889-.0019627.0996275-.1570148.549944-.3454326 1.0002604-.1884177.4503164-.4239399 1.1457166-.5220742 1.5442267-.0981342.3985101-.2531864.8747296-.3454326 1.0560517-.0922462.1853072-.2453356.8368713-.3434699 1.4525694-.1766416 1.1178208-.3415072 1.7913029-.5240369 2.1439844-.0765447.1474487-.0588805.2869272.0726194.6555491.5279623 1.4545619.4357161 3.9591979-.1923432 5.2344303-.9401261 1.9088634-1.0951783 2.1041333-2.08829694 2.624189-1.00489477.5260334-1.4229467.7591618-1.54267049.8627744-.18841777.1613966-.88124562.3666293-1.5819242.4662568-.37487286.0557914-.70264127.1016201-.72619349.1075978-.02355222.0059776-.17467898-.0219181-.33365647-.0617691-.1844924-.0458287-.32384304-.0338734-.38468628.0278957-.11776111.1215456-.23355953.1175605-.86358145-.0418436z"/><path d="m26 48h3v-48h-3z"/><path d="m116.772021 44.1802668h4.227979v-15.932947h-4.227979zm-6.798575-5.4787333c-.580959.2180083-1.185234.4095297-1.812824.5766015-.856866.238383-1.398964.4747285-1.628239.7049616-.235103.2404204-.351684.5114028-.351684.8149845 0 .3484059.116581.6336505.347798.8536963.231218.2220833.571244.3321062 1.020078.3321062.470207 0 .907384-.1202102 1.311529-.3585932.404145-.2404204.689766-.5317774.860751-.8761083.169041-.3422935.252591-.790535.252591-1.3406496zm-3.658679-2.3267808-4.031736-.4441665c.153497-.7395985.371114-1.3202749.658679-1.7440669.287565-.4237919.699482-.7925724 1.237694-1.104304.388601-.2241207.919042-.3973049 1.59715-.52159.676166-.1222477 1.408679-.1833716 2.197539-.1833716 1.262954 0 2.279145.0733486 3.046632.2220833s1.406736.4584288 1.917747.9290824c.359455.3259938.641191.7884975.849093 1.3854736.207901.5969762.310881 1.1674653.310881 1.7114675v5.097728c0 .5440022.033031.9677941.099093 1.2774882.066062.3076567.207901.7008867.429404 1.1776526h-3.957902c-.159326-.2954318-.264248-.5236275-.31088-.6784745-.048576-.1548471-.097151-.3993425-.145726-.7334861-.553756.5582644-1.101684.9555693-1.647668 1.1959898-.746114.3178439-1.614637.4767659-2.601684.4767659-1.313472 0-2.310233-.317844-2.990285-.9555693-.680052-.6377254-1.020078-1.4241855-1.020078-2.3593802 0-.8761083.244819-1.5973696.734456-2.1617464.49158-.5643767 1.397021-.9861312 2.716321-1.2611885 1.581607-.3321062 2.607513-.5664142 3.077721-.7008867.470207-.1344724.967616-.3096941 1.492228-.5277024 0-.5419647-.106866-.92297-.320596-1.1409783-.213731-.2159709-.590674-.3259938-1.130829-.3259938-.689767 0-1.208549.1161353-1.554404.3484058-.268135.1813341-.485752.5215901-.65285 1.0207681zm-13.5874354-3.7367039h3.9501295v1.890764c.3788861-.8190594.7713731-1.3834362 1.1755182-1.6910928.4041451-.3076567.9034974-.4604663 1.498057-.4604663.6217616 0 1.3018137.2017087 2.0420987.6071635l-1.307643 3.1519526c-.4974091-.2180084-.8898961-.3259938-1.1813469-.3259938-.5518135 0-.9812176.2383829-1.2843264.7171863-.4352332.6743997-.6528498 1.9355882-.6528498 3.7815281v3.8691389h-4.2396373zm-4.3737047-4.390729v4.390729h2.3218912v3.2273386h-2.3218912v4.0973346c0 .4930656.0446892.8190594.1360104.9779814.1379534.2465328.378886.3687805.7247409.3687805.3108809 0 .746114-.0937232 1.3056995-.2832071l.3108808 3.0541544c-1.0433937.2404204-2.0168393.3585932-2.9222797.3585932-1.0511658 0-1.8244819-.1405848-2.3218912-.423792-.4974094-.2811696-.8646373-.7110739-1.103627-1.2876755-.2389896-.574564-.3575129-1.5077213-.3575129-2.7974343v-4.0647352h-1.5544042v-3.2273386h1.5544042v-2.1209972zm-7.6476684 15.9309095h-3.9384715v-1.8683519c-.5867875.7681229-1.1794041 1.3141625-1.7778497 1.6401563s-1.3309585.4889907-2.2014249.4889907c-1.1619171 0-2.0712435-.3626681-2.7318652-1.0920792-.6606218-.7273737-.9889897-1.8479774-.9889897-3.3638486v-7.3450478h4.2376943v6.3466918c0 .7232987.1282384 1.2387764.384715 1.5423582.2545337.3035817.6139897.4563913 1.0764249.4563913.5051814 0 .9170985-.2017087 1.2396373-.6092009.3205959-.4054548.4818653-1.1328285.4818653-2.1841585v-5.5520819h4.2182642zm-17.8270725-6.7908583c-.0835492-.8557338-.3011658-1.4690096-.6586787-1.8377901-.35557-.3687805-.8238342-.5541894-1.4028498-.5541894-.6703368 0-1.2066062.2791321-1.6068653.8373965-.2564767.3463684-.4177461.8659211-.4876943 1.554583zm4.2901555 2.1189597h-8.4559586c.0757772.7090365.2584197 1.2387764.5498705 1.5851448.4060881.5012155.9384715.7518232 1.5952072.7518232.4138601 0 .8082902-.1100229 1.1813472-.3280312.2273316-.1365099.4740932-.3789678.7363989-.7273737l4.1560881.4013799c-.6353627 1.1593154-1.4028497 1.9905996-2.3005181 2.49589-.8996114.503253-2.1878239.7538607-3.8665803.7538607-1.4572539 0-2.60557-.2139334-3.4410622-.6458752s-1.5291451-1.1165288-2.0770725-2.053761c-.5498705-.9392696-.8257772-2.0415362-.8257772-3.3088371 0-1.8051906.5518134-3.2640129 1.6534974-4.3805417 1.1016839-1.1165287 2.625-1.6727557 4.5660621-1.6727557 1.5757772 0 2.8193006.2485703 3.73057.7497858.9132124.499178 1.6068653 1.2245142 2.0829015 2.1719337.4779793.9494569.715026 2.1861959.715026 3.706142zm-29.588083-11.2590109h4.3834197l5.7202073 8.8140574v-8.8140574h4.4261658v15.9309095h-4.4261658l-5.6891192-8.7488586v8.7488586h-4.4145078zm68.0926165-16.0246328h3.926814v1.8805767c.586787-.7681229 1.181347-1.3182374 1.783678-1.6462687.600389-.3300687 1.332902-.4951031 2.195596-.4951031 1.167746 0 2.082902.3647056 2.741581 1.0920793.660621.7273736.990932 1.8520522.990932 3.3740358v7.336898h-4.239637v-6.3466918c0-.7253362-.128238-1.2387765-.382772-1.5382833-.256477-.3015442-.615933-.4502789-1.078368-.4502789-.51101 0-.926814.2017087-1.243523.6071634-.318653.4054548-.476037 1.134866-.476037 2.1841585v5.5439321h-4.218264zm-10.4475387 5.7925023c0 1.028918.1981865 1.788891.5965026 2.2819566.396373.4930657.8957253.7395985 1.4961139.7395985.6081607 0 1.107513-.2424579 1.498057-.7273737.3905441-.4869532.5848446-1.2652634.5848446-2.3369681 0-1.0003934-.1962435-1.7440668-.5906736-2.2330575-.392487-.4889907-.8801813-.7334861-1.4611399-.7334861-.6139896 0-1.123057.2465329-1.523316.7436734-.4002591.4951031-.6003886 1.2510012-.6003886 2.2656569zm-4.2299223.0101873c0-1.7603665.5673575-3.2110389 1.7001295-4.3520172s2.6638601-1.7114675 4.5913213-1.7114675c2.2053108 0 3.8704662.6703248 4.9954662 2.0109743.905441 1.0798545 1.358161 2.4082792 1.358161 3.9873117 0 1.7766662-.561529 3.2293761-1.684586 4.364242s-2.6755179 1.7012801-4.6573832 1.7012801c-1.7700777 0-3.2001295-.4706535-4.2920984-1.4139981-1.3406736-1.1654278-2.0110104-2.6955612-2.0110104-4.5863253zm-9.388601-.0651987c0 .9942811.1768134 1.7114674.5343264 2.1576714.3555699.4462041.8063471.6682873 1.3523316.6682873.5032383 0 .9268135-.2180083 1.2687824-.6560625.3419689-.4400916.5129533-1.1756151.5129533-2.2126829 0-.9127827-.1670984-1.5831074-.5032383-2.0109743-.3341969-.4278668-.740285-.6397628-1.2163212-.6397628-.5751296 0-1.0414508.2220833-1.4047928.6682873-.363342.4441665-.5440414 1.1206037-.5440414 2.0252365zm-4.2279793-10.12821994h4.2590673v5.52152004c.4216322-.4645412.8996114-.8129471 1.4358809-1.0431802.5343264-.2322706 1.126943-.3484059 1.7759067-.3484059 1.3406736 0 2.4501295.5052904 3.3283679 1.5158712.8762953 1.0105808 1.3154145 2.4612532 1.3154145 4.3520173 0 1.2611885-.2001295 2.3716049-.6003886 3.3312491-.4022021.9596443-.9559586 1.6768306-1.6632125 2.1515591-.7091968.4747285-1.4941709.7131114-2.3588082.7131114-.738342 0-1.4164508-.1670718-2.0304405-.5012154-.4643782-.2607951-.9676165-.7497858-1.513601-1.4669721v1.7073925h-3.9481865zm-9.4022021 4.39072904h3.9501295v1.890764c.3788861-.8190594.7713731-1.3813987 1.1755182-1.6890554.4041451-.3076566.9034974-.4625037 1.498057-.4625037.6217616 0 1.3018134.2037462 2.0420984.6092009l-1.3056995 3.1519526c-.4974093-.2180083-.8918393-.3259938-1.1813471-.3259938-.5537565 0-.9812176.238383-1.2862694.7171864-.4352332.6723622-.6528498 1.9335507-.6528498 3.7815281v3.8691389h-4.2396373zm-6.6936528 6.0634847c-.5809586.2180083-1.1852332.4095297-1.8147669.5766015-.8568653.238383-1.3989637.4747285-1.6262953.7069991-.2351036.2383829-.353627.5114027-.353627.8149845 0 .3484058.1165803.631613.347798.8536962.2312176.2200459.5712435.3300688 1.0200777.3300688.4702072 0 .9073834-.1181728 1.3115285-.3585932.4041451-.238383.6917098-.5297399.8607513-.8740709.1690414-.344331.2545337-.7925724.2545337-1.342687zm-3.6586788-2.3247433-4.0317358-.446204c.1515545-.7395985.371114-1.3202749.6567358-1.7440669.2875648-.4237919.7014249-.7905349 1.2396373-1.1022665.386658-.2261582.9190415-.3993424 1.5952073-.5215901.6781088-.1242851 1.4106217-.185409 2.1975388-.185409 1.2648964 0 2.2810881.0733486 3.0466321.2220833.7674871.1487347 1.4067358.4584288 1.9177462.9290823.3594559.3259938.6431347.7884975.8510362 1.3854737.2059586.5990136.3108809 1.1695028.3108809 1.7135049v5.0956906c0 .5440022.033031.9698316.0971502 1.2774882.0660622.3076567.2098446.7008867.4313472 1.1796901h-3.9598446c-.1593264-.2974693-.2623057-.5236275-.3108808-.6805121-.0485752-.154847-.0971503-.3993424-.1457254-.733486-.5518135.5582644-1.1016839.9576068-1.6476684 1.1959897-.746114.3198815-1.6126943.4788034-2.6016839.4788034-1.3115285 0-2.3082902-.3198814-2.990285-.9576068-.6800518-.6377253-1.0200777-1.4221479-1.0200777-2.3573426 0-.8761084.2448186-1.5973697.7363989-2.1637839.4896373-.5643768 1.3950777-.9840938 2.7143783-1.259151 1.5835492-.3341437 2.6094559-.5684517 3.0796632-.7008867.4682642-.1344725.9656736-.3096941 1.492228-.5277025 0-.5440021-.1068653-.9250074-.3225389-1.1409783-.2137306-.2180083-.5906736-.3259938-1.128886-.3259938-.6917099 0-1.2085492.1161353-1.5544042.3463684-.2700777.1813341-.4876943.5236276-.6528497 1.0228056zm-9.9598446 1.2937879 4.113342 1.3039752c-.2759067 1.210252-.7111399 2.2208328-1.3056995 3.0317423-.5945596.8109096-1.3309585 1.4241855-2.2130829 1.8357526-.8801813.4136047-2.0012953.6193883-3.3633419.6193883-1.6496114 0-3-.2506078-4.0453368-.7538607-1.0472798-.5032529-1.9507772-1.3895486-2.7104923-2.6568495-.761658-1.2693384-1.140544-2.8911575-1.140544-4.8695324 0-2.6385123.6683938-4.6637488 2.0051813-6.08182186 1.3367876-1.41603557 3.2292747-2.12303463 5.6735752-2.12303463 1.9138601 0 3.4196891.40545479 4.513601 1.21636437 1.0958549.81090958 1.9099741 2.05783592 2.4423575 3.73874142l-4.146373.9677941c-.1457254-.4869533-.2972798-.8414715-.4566062-1.0655922-.2623057-.3769304-.5829016-.6662499-.9637306-.869996-.378886-.2017087-.8044042-.3035817-1.2746114-.3035817-1.0647669 0-1.878886.4482414-2.4462435 1.3467619-.4274612.6662498-.6411918 1.7135049-.6411918 3.1417652 0 1.7685164.2545337 2.9787684.7655441 3.6348309s1.2299223.9840938 2.1567357.9840938c.8976684 0 1.5757772-.26487 2.0362695-.7946099.4585492-.5277025.7927461-1.2958254 1.0006476-2.3023312z"/></g></svg>