<svg height="62" viewBox="0 0 191 62" width="191" xmlns="http://www.w3.org/2000/svg"><g fill="none" fill-rule="evenodd"><path d="m25.209003 23.1198069h-8.2549178c-1.1002044 0-1.9082687-.3221147-2.4247237-.9701205-.5216315-.6478659-.7804562-1.3463639-.7804562-2.0980115 0-.750109.2588247-1.448607.7804562-2.0966128.516455-.6480058 1.3245193-.9737571 2.4247237-.9737571h13.7876626c5.0460214 0 7.6350657-2.8285391 7.7647435-8.49219103v-.30630967c0-.02713429-.0026546-.05217056-.0026546-.07916497v-8.09692569h-7.4726033c-.0653035-.00097908-.1259614-.00671364-.1923268-.00671364h-12.8158087c-10.79617901 0-16.80502865 5.12684075-18.0230979 15.3826203.66365329.2867282 5.04469413 2.2132622 6.11357413 3.5519334 1.20174338-.0688147 1.98684522.7597599 2.22708771 1.1968457.45964627.0914733.39367914.5526162.39367914.5526162s-.19657411 1.264961-.56808722 1.6104336c.24090614.413588-.08760224.5979333-.08760224.5979333s-.15277298.736402.74262804 1.4726642c.87376592.4142873 1.44132224.229942 2.49015984 1.5644172.6323289.1843453.9162398.5071593.9162398.5071593s.1096355.7357027.8302302 1.2421627c.6992252.9662042.3715132 1.2883189 1.2669142 2.8078387.7634667.3675716.9384057.8512332.5674235 1.4719649-.2617448.229942-1.6377636 3.0611386-3.7564103 2.8072792-.866864.5948562-2.42193634.8375262-3.56634008 1.3420281 2.49679638 1.2986691 5.59220808 1.9487729 9.28756238 1.9487729h8.2510686c1.1028591 0 1.9106579.3258911 2.4285729.9751557.516455.647866.7754125 1.3451051.7754125 2.0966129 0 .7516475-.2589575 1.4487468-.7754125 2.0967526-.517915.6492647-1.3257138.9712395-2.4285729.9712395h-16.69778226c-5.04734875 0-7.6399767 2.831756-7.76580536 8.4916316v.0639194h-.0099548v8.4071517h7.04640519c.2086526.0097907.41531423.0218193.63352343.0218193h15.9223698c12.0364143 0 18.0584043-6.5112486 18.0584043-19.5408791 0-12.3440003-5.6970654-18.5202664-17.086285-18.5202664" fill="#0dbfba" transform="translate(0 .352381)"/><g fill-rule="nonzero" transform="translate(52.467917 -.438607)"><path d="m13.1061217 19.8204253c.0276658 1.7704189-.4288129 3.2812772-1.3694497 4.5326203-.6178693.8527672-1.4893286 1.4506222-2.61440401 1.7935829-.60864737.1946534-1.31411441.2919786-2.1164223.2919786-1.49395263 0-2.72967268-.3707627-3.70719724-1.1122994-.81152982-.6117678-1.45705522-1.4390322-1.93659557-2.4818182s-.75619409-2.2454477-.82996953-3.6080214l3.61036746-.2502674c.16599473 1.4738042.55792087 2.5397472 1.17579017 3.197861.45187456.5005372.97290577.7368985 1.56310928.7090909.82997368-.0278076 1.49394266-.4356467 1.99192687-1.2235294.25821404-.398576.38731912-.9593547.38731912-1.682353 0-1.0659589-.47492226-2.1179983-1.42478103-3.1561497-.75619824-.713729-1.8858677-1.7843066-3.38904225-3.2117647-1.26340438-1.2235355-2.15330726-2.3219203-2.66973532-3.2951872-.56253772-1.09376657-.84380236-2.28020747-.84380236-3.55935825 0-2.30803293.77001959-4.05525254 2.31008186-5.24171123.94985877-.71372906 2.13024807-1.07058824 3.54120333-1.07058824 1.35562368 0 2.5175694.3058793 3.48587202.91764706.7469763.47272964 1.3510037 1.13315084 1.8121001 1.98128343.4610965.84813258.7423612 1.82370214.8438024 2.92673796l-3.65186593.66737968c-.10144123-1.03815136-.39653855-1.8445604-.88530083-2.41925133-.35043333-.4263836-.85302097-.6395722-1.50777798-.6395722-.69164474 0-1.22189774.31051383-1.59077493.93155081-.29510176.50053726-.44265042 1.12156491-.44265042 1.8631016 0 1.15865107.49797674 2.34045743 1.49394515 3.54545451.37809912.4541913.9406284.9917973 1.68760472 1.6128343.88530525.7415366 1.47088901 1.2606045 1.75676883 1.5572192.93141489.9454593 1.65532559 1.8770008 2.17175359 2.7946524.2397702.4263836.4334278.8249536.5809787 1.1957219.3596553.8991133.548702 1.7101569.5671458 2.4331551zm6.4045982 6.2983957h-3.7901941v-25.36042776h3.7901941zm12.9890232 0h-10.3607863v-25.36042776h3.7901942v21.56470586h6.5705921zm4.9143858 0-4.4956683-25.36042776h3.9838538l3.1538842 19.74331546 3.1953827-19.74331546h3.9838537l-4.5786652 25.36042776zm12.449543 0v-25.36042776h10.8172695v3.82352941h-7.0270754v6.93796795h5.1319783v3.8374331h-5.1319783v6.9379679h7.0270754v3.8235294zm19.4351198-25.36042776c2.1210438 0 3.6749157.58858591 4.6616622 1.7657754.8760833 1.02888215 1.3141184 2.45631885 1.3141184 4.28235294v3.68449202c0 1.7982264-.6778017 3.3137193-2.0334253 4.546524l2.8218964 11.0812834h-4.1083492l-2.3239147-9.5796791c-.1106632.0092692-.2259355.0139037-.3458206.0139037h-2.1855865v9.5657754h-3.7901942v-25.36042776zm2.2685834 6.11764706c0-1.47380416-.7239107-2.21069519-2.1717536-2.21069519h-2.2962491v8.10588239h2.2962491c.6086473 0 1.1227622-.2155059 1.54236-.6465241s.6293936-.9477688.6293936-1.5502674zm7.1100723 19.2427807v-25.36042776h5.6852913c1.5031745 0 2.8587779.39856999 4.0668507 1.19572192 1.0328561.67665223 1.7705994 1.71942255 2.213252 3.12834225.2397702.7600751.3596535 1.65917484.3596535 2.6973262 0 1.69626517-.4472569 3.05881839-1.3417841 4.08770049-.3780991.4263836-.8207451.7554356-1.3279512.9871658.8391956.3244223 1.5538844.9639881 2.1440879 1.9187166.396543.6488446.6870295 1.4830609.871468 2.5026738.0922193.5283449.1383283 1.1169308.1383283 1.7657754 0 1.6035731-.2997082 2.9661263-.8991337 4.0877005-.4703184.8713056-1.1342874 1.5711204-1.9919268 2.0994653-.9683027.5932293-1.927369.8898395-2.8772277.8898395zm4.0945163-3.7818181h1.590775c1.2910701 0 2.1855839-.667373 2.6835681-2.0021391.1752167-.4541912.2628237-.9778936.2628237-1.571123 0-1.4181889-.2720428-2.4516901-.8161367-3.1005347-.4795404-.5932294-1.1896183-.8898396-2.1302551-.8898396h-1.590775zm0-11.2203209h1.590775c1.180407 0 1.973481-.5793168 2.379246-1.73796791.1475508-.4356528.2213252-.9686243.2213252-1.59893048 0-1.05668977-.2535993-1.85382975-.7608054-2.39144385-.4703185-.50053726-1.0835676-.75080214-1.8397658-.75080214h-1.590775zm16.2259044 9.1764706-.9267994 5.8256684h-3.9561881l4.2743431-25.36042776h5.2426413l4.219011 25.36042776h-3.983853l-.899134-5.8256684zm1.9919269-13.72299466-1.4109483 9.99679146h2.8218963zm15.52043 19.86844916c-1.678391 0-3.103158-.5885859-4.274343-1.7657754-1.171185-1.1771894-1.756769-2.6046262-1.756769-4.2823529v-13.88983957c0-1.67772675.590195-3.10748073 1.770602-4.28930482s2.600563-1.77272727 4.26051-1.77272727c1.678391 0 3.100853.59322045 4.267427 1.77967915 1.166574 1.18645869 1.749852 2.6138954 1.749852 4.28235294v2.89197861h-3.942355v-2.96149733c0-.61176777-.214407-1.13315293-.643226-1.56417112-.42882-.4310182-.947546-.64652407-1.556193-.64652407-.599426 0-1.111235.21550587-1.535444.64652407-.424209.43101819-.63631.95240335-.63631 1.56417112v13.91764709c0 .6117677.212101 1.1308356.63631 1.5572192s.936018.6395722 1.535444.6395722c.608647 0 1.127373-.2131886 1.556193-.6395722.428819-.4263836.643226-.9454515.643226-1.5572192v-3.4898396h3.942355v3.5315508c0 1.686996-.590194 3.1167499-1.770601 4.2893048s-2.595952 1.7588235-4.246678 1.7588235zm12.449543-8.3283422v8.0085561h-3.81786v-25.36042776h3.81786v9.03743315l4.620164-9.03743315h4.066851l-5.201143 10.37219256 6.086443 14.9882352h-4.468002l-3.983854-10.2748663z" fill="#0dbfba"/><path d="m16.1914075 34.7446532h3.991049l-3.9494756 25.3739967h-3.6584615l-2.1479604-13.8416265-2.02324015 13.8416265h-3.64460376l-4.22663174-25.3739967h3.99104899l1.99552449 13.5912252 1.82923078-13.5912252h3.99104899l1.9955245 13.5912252zm6.6101749 25.3739967v-25.3739967h10.8368066v3.8255751h-7.039767v6.9416801h5.1412472v3.8394863h-5.1412472v6.9416801h7.039767v3.8255751zm13.4697903 0v-25.3739967h5.6955595c1.5058894 0 2.8639411.3987832 4.0741958 1.1963616 1.0347216.6770143 1.7737974 1.7203426 2.2172495 3.1300161.2402032.7604818.360303 1.6600626.360303 2.6987694 0 1.6971727-.4480647 3.060455-1.3442075 4.0898876-.378782.4266118-.8222274.7558398-1.3303496.987694.8407113.3245959 1.5566909.9645039 2.1479604 1.9197432.3972591.6491917.6882702 1.4838543.8730419 2.5040128.0923859.5286276.1385781 1.1175284.1385781 1.7667202 0 1.604431-.3002495 2.9677133-.9007576 4.0898876-.4711678.8717718-1.136336 1.571961-1.9955245 2.1005886-.9700514.5935467-1.9308499.8903156-2.8824242.8903156zm4.1019115-3.7838416h1.593648c1.293402 0 2.1895313-.6677301 2.6884149-2.0032103.1755332-.4544342.2632984-.9784168.2632984-1.5719636 0-1.4189477-.2725342-2.4530019-.8176107-3.1021937-.4804065-.5935467-1.1917669-.8903156-2.1341026-.8903156h-1.593648zm0-11.2263242h1.593648c1.1825389 0 1.9770454-.5796268 2.3835431-1.7388978.1478174-.4358859.221725-.9691426.221725-1.599786 0-1.0572552-.2540573-1.8548216-.7621795-2.3927234-.4711679-.5008051-1.0855246-.7512038-1.8430886-.7512038h-1.593648zm18.8743358 9.1813804-.9284732 5.8287854h-3.9633334l4.282063-25.3739967h5.2521096l4.2266317 25.3739967h-3.9910489l-.9007576-5.8287854zm1.9955245-13.7303371-1.4134965 10.0021402h2.826993zm15.5068882-5.8148742c1.8569557 0 3.3351072.5889008 4.4344989 1.7667201 1.025483 1.1221744 1.5382168 2.5503748 1.5382168 4.2846442v3.6864634c0 1.6693502-.5820222 3.0975507-1.7460839 4.2846442-1.1640618 1.1870935-2.572925 1.7806313-4.2266318 1.7806313h-2.2033916v9.5708935h-3.7970397v-25.3739967zm2.2726807 6.1209202c0-.6677401-.196317-1.2033152-.5889569-1.6067415s-.9215409-.6051365-1.5867191-.6051365h-2.3003963v8.1102194h2.3003963c.6097466 0 1.1247901-.2156212 1.5451457-.64687s.6305303-.9482759.6305303-1.5510968zm12.3195922-6.1209202c1.8569557 0 3.3351072.5889008 4.4344989 1.7667201 1.025483 1.1221744 1.5382168 2.5503748 1.5382168 4.2846442v3.6864634c0 1.6693502-.5820222 3.0975507-1.746084 4.2846442-1.1640617 1.1870935-2.5729249 1.7806313-4.2266317 1.7806313h-2.2033916v9.5708935h-3.7970397v-25.3739967zm2.2726807 6.1209202c0-.6677401-.196317-1.2033152-.5889569-1.6067415s-.921541-.6051365-1.5867191-.6051365h-2.3003963v8.1102194h2.3003963c.6097466 0 1.12479-.2156212 1.5451457-.64687.4203556-.4312488.6305303-.9482759.6305303-1.5510968zm18.9159097 12.9513109c.027715 1.7713661-.429588 3.2830328-1.371924 4.5350455-.618985.8532234-1.492018 1.4513983-2.619125 1.7945425-.609747.1947575-1.316488.2921348-2.120245.2921348-1.496651 0-2.734603-.3709611-3.713893-1.1128946-.812996-.612095-1.459687-1.4398021-1.940093-2.483146-.480407-1.0433439-.75756-2.2466492-.8314688-3.6099519l3.6168878-.2504013c.166295 1.4745928.558929 2.5411061 1.177914 3.199572.452691.5008051.974663.7372928 1.565932.7094703.831473-.0278225 1.496641-.4358798 1.995525-1.224184.25868-.3987893.388019-.959868.388019-1.6832531 0-1.0665293-.47578-2.1191316-1.427355-3.1578384-.757564-.714111-1.889273-1.7852613-3.395163-3.2134832-1.265686-1.2241902-2.157196-2.3231626-2.674557-3.2969502-.563554-1.0943518-.845326-2.2814275-.845326-3.5612627 0-2.3092679.77141-4.0574223 2.314254-5.2445158.951574-.7141109 2.134095-1.0711611 3.547599-1.0711611 1.358072 0 2.522116.306043 3.492168.9181381.748325.4729826 1.353443 1.1337571 1.815373 1.9823435.461929.8485864.743702 1.8246779.845326 2.9283039l-3.658462.6677367c-.101624-1.0387068-.397254-1.8455473-.886899-2.4205457-.351067-.4266117-.854562-.6399144-1.510502-.6399144-.692893 0-1.224104.31068-1.593648.9320492-.295634.5008051-.443449 1.122165-.443449 1.8640985 0 1.159271.498876 2.3417097 1.496643 3.5473515.378782.4544342.942327.9923279 1.690653 1.6136972.886904.7419334 1.473545 1.261279 1.759941 1.5580524.933097.9459651 1.658316 1.878005 2.175676 2.7961477.240204.4266117.434211.8253949.582028 1.1963617.360305.8995943.549693 1.7110718.568171 2.4344569z" fill="#fff"/></g></g></svg>