<?xml version="1.0" encoding="UTF-8"?>
<svg width="240px" height="74px" viewBox="0 0 240 74" version="1.1" xmlns="http://www.w3.org/2000/svg" xmlns:xlink="http://www.w3.org/1999/xlink">
    <!-- Generator: Sketch 49.2 (51160) - http://www.bohemiancoding.com/sketch -->
    <title>logo</title>
    <desc>Created with Sketch.</desc>
    <defs></defs>
    <g id="Page-4" stroke="none" stroke-width="1" fill="none" fill-rule="evenodd">
        <g id="17-home" transform="translate(-42.000000, -39.000000)">
            <g id="logo" transform="translate(42.000000, 39.000000)">
                <g id="Group-5" transform="translate(0.000000, 1.000000)" fill="#48A2A2">
                    <path d="M30.3972196,27.5861333 L20.4433729,27.5861333 C19.1167375,27.5861333 18.1423671,27.2017919 17.5196215,26.4286031 C16.8906341,25.6555812 16.5785411,24.8221462 16.5785411,23.9252939 C16.5785411,23.0302775 16.8906341,22.1968424 17.5196215,21.4236536 C18.1423671,20.6504649 19.1167375,20.2617844 20.4433729,20.2617844 L37.0686479,20.2617844 C43.1531813,20.2617844 46.2750718,16.886823 46.4314384,10.1290564 L46.4314384,9.76357331 C46.4314384,9.73119718 46.4282374,9.70132435 46.4282374,9.66911511 L46.4282374,0.00801058934 L37.4177119,0.00801058934 C37.3389685,0.0068423784 37.2658267,0 37.1858028,0 L21.7323971,0 C8.7142772,0 1.46875775,6.11725317 0,18.3542628 C0.800238502,18.6963817 6.08293295,20.9950871 7.37179708,22.5923652 C8.82086896,22.5102567 9.76755111,23.4988969 10.0572375,24.0204197 C10.6114826,24.129564 10.5319389,24.6797913 10.5319389,24.6797913 C10.5319389,24.6797913 10.2949083,26.1891199 9.84693477,26.6013314 C10.1374213,27.0948171 9.74130329,27.3147746 9.74130329,27.3147746 C9.74130329,27.3147746 9.55708839,28.1934361 10.6367702,29.0719307 C11.6903642,29.5662508 12.3747282,29.3462934 13.6394251,30.9385649 C14.4018923,31.1585223 14.7442344,31.5436982 14.7442344,31.5436982 C14.7442344,31.5436982 14.8764338,32.4215253 15.7453327,33.0258241 C16.588464,34.1786814 16.1933062,34.5630228 17.272988,36.3760862 C18.1935824,36.814666 18.4045253,37.3917622 17.9571919,38.1324079 C17.6415779,38.4067706 15.9823634,41.7849029 13.427682,41.4820025 C12.3824104,42.1917741 10.5072916,42.4813235 9.12736031,43.0832859 C12.1380176,44.6328343 15.87049,45.4085263 20.3263781,45.4085263 L30.2755833,45.4085263 C31.6054197,45.4085263 32.57947,45.7973737 33.2039761,46.5720644 C33.8267217,47.3450863 34.1389748,48.1770194 34.1389748,49.0737047 C34.1389748,49.970557 33.8267217,50.8023232 33.2039761,51.5755119 C32.57947,52.3502027 31.6054197,52.7343772 30.2755833,52.7343772 L10.1412625,52.7343772 C4.05512859,52.7343772 0.928916854,56.113177 0.777191634,62.8664376 L0.777191634,62.9427051 L0.765188056,62.9427051 L0.765188056,72.9739656 L9.26180038,72.9739656 C9.51339536,72.9856477 9.76258963,73 10.0257081,73 L29.2250302,73 C43.7386358,73 51,65.2308966 51,49.6841784 C51,34.9555417 44.1304326,27.5861333 30.3972196,27.5861333" id="Fill-1"></path>
                </g>
                <path d="M78.264015,26.2543627 C78.3003977,28.5707268 77.7000924,30.5474895 76.4630812,32.1847102 C75.6505347,33.3004458 74.5044974,34.0826617 73.024935,34.5313814 C72.224516,34.7860602 71.2967715,34.9133977 70.2416737,34.9133977 C68.2770089,34.9133977 66.6519402,34.4283025 65.3664187,33.4580977 C64.2991934,32.6576787 63.4502769,31.5753101 62.8196437,30.2109596 C62.1890106,28.846609 61.8251892,27.2730816 61.7281687,25.4903302 L66.476085,25.1628877 C66.6943811,27.0911698 67.2097947,28.4858184 68.0223412,29.3468752 C68.6165917,30.0017635 69.3017886,30.3110116 70.0779525,30.2746289 C71.169433,30.2382462 72.0426042,29.7046416 72.6974925,28.6737989 C73.0370642,28.1523138 73.2068475,27.4186074 73.2068475,26.4726577 C73.2068475,25.0779882 72.5822875,23.7015307 71.3331487,22.3432439 C70.3386888,21.4094218 68.8530849,20.0087095 66.8762925,18.1410652 C65.2148167,16.5402272 64.0445246,15.1031328 63.3653812,13.8297389 C62.6256001,12.3986868 62.255715,10.8463823 62.255715,9.17277893 C62.255715,6.15301633 63.2683511,3.86700544 65.2936537,2.31467768 C66.5427925,1.38085551 68.095097,0.913951432 69.9506137,0.913951432 C71.7333652,0.913951432 73.2614149,1.31415493 74.5348087,2.11457393 C75.5171412,2.73307952 76.3114845,3.59715526 76.9178625,4.70682706 C77.5242405,5.81649886 77.8941256,7.09290547 78.0275287,8.53608518 L73.2250387,9.40926518 C73.0916356,8.05097839 72.7035595,6.99589644 72.0607987,6.24398768 C71.5999514,5.68611989 70.9390093,5.40719018 70.0779525,5.40719018 C69.1683855,5.40719018 68.4710612,5.81345737 67.9859587,6.62600393 C67.5978768,7.28089221 67.4038387,8.09342658 67.4038387,9.06363143 C67.4038387,10.5795765 68.0587172,12.1258173 69.3684937,13.7024002 C69.8657237,14.2966507 70.6054938,15.0000386 71.5878262,15.8125852 C72.7520721,16.78279 73.5221606,17.4619232 73.898115,17.8500052 C75.1229986,19.0870164 76.0749979,20.3058179 76.7541412,21.5064464 C77.0694578,22.0643142 77.3241328,22.5857915 77.5181737,23.0708939 C77.9911486,24.2472673 78.2397599,25.308413 78.264015,26.2543627 Z M86.6865637,34.4949989 L81.7021612,34.4949989 L81.7021612,1.31415893 L86.6865637,1.31415893 L86.6865637,34.4949989 Z M103.768148,34.4949989 L90.1429013,34.4949989 L90.1429013,1.31415893 L95.1273038,1.31415893 L95.1273038,29.5287877 L103.768148,29.5287877 L103.768148,34.4949989 Z M107.488402,34.4949989 L101.576246,1.31415893 L106.815326,1.31415893 L110.962931,27.1457339 L115.16511,1.31415893 L120.40419,1.31415893 L114.382886,34.4949989 L107.488402,34.4949989 Z M122.705527,34.4949989 L122.705527,1.31415893 L136.931085,1.31415893 L136.931085,6.31675268 L127.68993,6.31675268 L127.68993,15.3941864 L134.438884,15.3941864 L134.438884,20.4149714 L127.68993,20.4149714 L127.68993,29.4924052 L136.931085,29.4924052 L136.931085,34.4949989 L122.705527,34.4949989 Z M148.264234,1.31415893 C151.053573,1.31415893 153.097036,2.08424748 154.394685,3.62444768 C155.546803,4.97060691 156.122854,6.83822324 156.122854,9.22735268 L156.122854,14.0480339 C156.122854,16.4007807 155.231491,18.3836071 153.44874,19.9965727 L157.159755,34.4949989 L151.756954,34.4949989 L148.700824,21.9612277 C148.555293,21.9733552 148.403701,21.9794189 148.246042,21.9794189 L145.371825,21.9794189 L145.371825,34.4949989 L140.387422,34.4949989 L140.387422,1.31415893 L148.264234,1.31415893 Z M151.247599,9.31830893 C151.247599,7.39002679 150.295599,6.42590018 148.391572,6.42590018 L145.371825,6.42590018 L145.371825,17.0313989 L148.391572,17.0313989 C149.191991,17.0313989 149.868093,16.7494374 150.419897,16.1855058 C150.971701,15.6215742 151.247599,14.9454729 151.247599,14.1571814 L151.247599,9.31830893 Z M160.597901,34.4949989 L160.597901,1.31415893 L168.074505,1.31415893 C170.051297,1.31415893 171.834022,1.83563622 173.422732,2.87860643 C174.781019,3.76391836 175.75121,5.12824846 176.333332,6.97163768 C176.648649,7.96609765 176.806305,9.14245339 176.806305,10.5007402 C176.806305,12.7200838 176.218127,14.5028085 175.041754,15.8489677 C174.544524,16.4068355 173.96241,16.8373574 173.295394,17.1405464 C174.399002,17.5650111 175.338874,18.4018002 176.115037,19.6509389 C176.636523,20.4998682 177.018535,21.5913323 177.261086,22.9253639 C177.382362,23.6166349 177.442999,24.3867234 177.442999,25.2356527 C177.442999,27.3337207 177.048859,29.1164453 176.260567,30.5838802 C175.642062,31.7238709 174.768891,32.639488 173.641027,33.3307589 C172.367634,34.1069228 171.106386,34.4949989 169.857247,34.4949989 L160.597901,34.4949989 Z M165.982511,29.5469789 L168.074505,29.5469789 C169.772363,29.5469789 170.948719,28.6738077 171.603607,26.9274389 C171.834031,26.3331885 171.949241,25.6479916 171.949241,24.8718277 C171.949241,23.0163109 171.591484,21.6641082 170.875957,20.8151789 C170.245324,20.0390151 169.311516,19.6509389 168.074505,19.6509389 L165.982511,19.6509389 L165.982511,29.5469789 Z M165.982511,14.8666402 L168.074505,14.8666402 C169.626833,14.8666402 170.669787,14.108679 171.2034,12.5927339 C171.397441,12.0227386 171.49446,11.3254143 171.49446,10.5007402 C171.49446,9.11819827 171.160957,8.0752437 170.493941,7.37184518 C169.875436,6.71695691 169.068965,6.38951768 168.074505,6.38951768 L165.982511,6.38951768 L165.982511,14.8666402 Z M187.320847,26.8728652 L186.102034,34.4949989 L180.899336,34.4949989 L186.520432,1.31415893 L193.414916,1.31415893 L198.963247,34.4949989 L193.724167,34.4949989 L192.541736,26.8728652 L187.320847,26.8728652 Z M189.940387,8.91810143 L188.08488,21.9976102 L191.795895,21.9976102 L189.940387,8.91810143 Z M210.35097,34.9133977 C208.143754,34.9133977 206.270074,34.1433091 204.729874,32.6031089 C203.189673,31.0629087 202.419585,29.1952924 202.419585,27.0002039 L202.419585,8.82714518 C202.419585,6.63205671 203.195737,4.76140854 204.748065,3.21514456 C206.300393,1.66888058 208.168009,0.895760182 210.35097,0.895760182 C212.558186,0.895760182 214.428834,1.67191242 215.962971,3.22424018 C217.497107,4.77656794 218.264164,6.64418427 218.264164,8.82714518 L218.264164,12.6109252 L213.079657,12.6109252 L213.079657,8.73618893 C213.079657,7.93576993 212.797696,7.25360488 212.233764,6.68967331 C211.669833,6.12574174 210.987668,5.84378018 210.187249,5.84378018 C209.398957,5.84378018 208.725888,6.12574174 208.16802,6.68967331 C207.610152,7.25360488 207.331222,7.93576993 207.331222,8.73618893 L207.331222,26.9456302 C207.331222,27.7460492 207.610152,28.4251824 208.16802,28.9830502 C208.725888,29.540918 209.398957,29.8198477 210.187249,29.8198477 C210.987668,29.8198477 211.669833,29.540918 212.233764,28.9830502 C212.797696,28.4251824 213.079657,27.7460492 213.079657,26.9456302 L213.079657,22.3796264 L218.264164,22.3796264 L218.264164,27.0002039 C218.264164,29.20742 217.488011,31.0780681 215.935684,32.6122046 C214.383356,34.146341 212.521803,34.9133977 210.35097,34.9133977 Z M226.723095,24.0168389 L226.723095,34.4949989 L221.70231,34.4949989 L221.70231,1.31415893 L226.723095,1.31415893 L226.723095,13.1384714 L232.798972,1.31415893 L238.1472,1.31415893 L231.30729,14.8848314 L239.31144,34.4949989 L233.435666,34.4949989 L228.196586,21.0516652 L226.723095,24.0168389 Z" id="Silverback-Web-Apps" fill="#48A2A2"></path>
                <path d="M83.2961416,42.268439 L87.8327038,42.268439 L83.3433974,71 L79.184882,71 L76.7433294,55.3268075 L74.4435444,71 L70.3007809,71 L65.4964355,42.268439 L70.0329977,42.268439 L72.3012789,57.6580964 L74.3805366,42.268439 L78.9170988,42.268439 L81.18538,57.6580964 L83.2961416,42.268439 Z M90.8098228,71 L90.8098228,42.268439 L103.12785,42.268439 L103.12785,46.6002259 L95.1258578,46.6002259 L95.1258578,54.4604501 L100.969832,54.4604501 L100.969832,58.8079889 L95.1258578,58.8079889 L95.1258578,66.6682131 L103.12785,66.6682131 L103.12785,71 L90.8098228,71 Z M106.12072,71 L106.12072,42.268439 L112.594773,42.268439 C114.306494,42.268439 115.850169,42.7199904 117.225847,43.6231069 C118.401998,44.3897057 119.242094,45.5710903 119.746159,47.1672962 C120.019194,48.0284072 120.15571,49.0470233 120.15571,50.2231749 C120.15571,52.1449227 119.646402,53.6885986 118.627771,54.8542489 C118.197215,55.3373112 117.693158,55.7101036 117.115583,55.9726375 C118.071206,56.3401849 118.885049,57.0647675 119.557136,58.1464069 C120.008694,58.8815017 120.339482,59.8266094 120.549509,60.9817583 C120.654522,61.5803355 120.707028,62.2471615 120.707028,62.9822563 C120.707028,64.7989905 120.365739,66.3426664 119.683151,67.6133303 C119.147582,68.6004575 118.391496,69.3932979 117.41487,69.9918751 C116.312228,70.6639617 115.220104,71 114.138464,71 L106.12072,71 Z M110.783298,66.715469 L112.594773,66.715469 C114.064962,66.715469 115.083578,65.9593828 115.650652,64.4471878 C115.850177,63.9326215 115.949939,63.3393039 115.949939,62.6672172 C115.949939,61.0605101 115.640153,59.8896266 115.020574,59.1545319 C114.474503,58.4824452 113.665911,58.1464069 112.594773,58.1464069 L110.783298,58.1464069 L110.783298,66.715469 Z M110.783298,54.0036435 L112.594773,54.0036435 C113.938946,54.0036435 114.842049,53.3473187 115.304109,52.0346494 C115.47213,51.5410858 115.55614,50.937267 115.55614,50.2231749 C115.55614,49.0260205 115.267357,48.1229176 114.689783,47.5138391 C114.154213,46.946766 113.455884,46.6632337 112.594773,46.6632337 L110.783298,46.6632337 L110.783298,54.0036435 Z M132.237457,64.399932 L131.182077,71 L126.677018,71 L131.544371,42.268439 L137.514361,42.268439 L142.318707,71 L137.782145,71 L136.758268,64.399932 L132.237457,64.399932 Z M134.505739,48.8527551 L132.899039,60.1784088 L136.112438,60.1784088 L134.505739,48.8527551 Z M152.132173,42.268439 C154.242945,42.268439 155.923137,42.935265 157.172798,44.2689369 C158.338448,45.5396008 158.921265,47.156785 158.921265,49.1205382 L158.921265,53.2948056 C158.921265,55.1850493 158.259689,56.8022336 156.936519,58.1464069 C155.613348,59.4905802 154.011916,60.1626568 152.132173,60.1626568 L149.627613,60.1626568 L149.627613,71 L145.311578,71 L145.311578,42.268439 L152.132173,42.268439 Z M154.715493,49.199298 C154.715493,48.4432005 154.492343,47.8367564 154.046035,47.3799475 C153.599728,46.9231386 152.998534,46.6947376 152.242437,46.6947376 L149.627613,46.6947376 L149.627613,55.8781258 L152.242437,55.8781258 C152.935526,55.8781258 153.520968,55.633973 153.998779,55.14566 C154.476591,54.657347 154.715493,54.0719053 154.715493,53.3893173 L154.715493,49.199298 Z M168.718979,42.268439 C170.829751,42.268439 172.509943,42.935265 173.759604,44.2689369 C174.925254,45.5396008 175.50807,47.156785 175.50807,49.1205382 L175.50807,53.2948056 C175.50807,55.1850493 174.846495,56.8022336 173.523324,58.1464069 C172.200154,59.4905802 170.598721,60.1626568 168.718979,60.1626568 L166.214419,60.1626568 L166.214419,71 L161.898384,71 L161.898384,42.268439 L168.718979,42.268439 Z M171.302299,49.199298 C171.302299,48.4432005 171.079149,47.8367564 170.632841,47.3799475 C170.186534,46.9231386 169.58534,46.6947376 168.829243,46.6947376 L166.214419,46.6947376 L166.214419,55.8781258 L168.829243,55.8781258 C169.522332,55.8781258 170.107774,55.633973 170.585585,55.14566 C171.063397,54.657347 171.302299,54.0719053 171.302299,53.3893173 L171.302299,49.199298 Z M192.803714,63.8643656 C192.835218,65.8701242 192.315409,67.5818193 191.244271,68.9995021 C190.54068,69.9656266 189.548317,70.6429538 188.267152,71.0315039 C187.574062,71.2520323 186.770721,71.3622949 185.857103,71.3622949 C184.155884,71.3622949 182.748723,70.942247 181.63558,70.1021387 C180.711461,69.4090494 179.976377,68.4718176 179.430306,67.2904152 C178.884236,66.1090129 178.5692,64.7464827 178.485189,63.2027836 L182.596449,62.9192485 C182.785473,64.5889638 183.231774,65.7966014 183.935365,66.5421975 C184.449931,67.1092706 185.043249,67.3770511 185.715335,67.3455471 C186.660457,67.314043 187.416543,66.8519904 187.983617,65.9593753 C188.277655,65.507817 188.424671,64.8724946 188.424671,64.053389 C188.424671,62.8457333 187.88386,61.6538475 186.80222,60.4776959 C185.941109,59.6690916 184.654713,58.4562034 182.942992,56.8389949 C181.504306,55.4528161 180.490941,54.2084244 179.902865,53.1057822 C179.262282,51.8666224 178.941996,50.5224692 178.941996,49.0732824 C178.941996,46.4584452 179.818846,44.4789697 181.572572,43.1347964 C182.654211,42.3261921 183.998365,41.921896 185.605072,41.921896 C187.148771,41.921896 188.471922,42.2684355 189.574564,42.9615249 C190.425173,43.497094 191.113002,44.2453042 191.63807,45.2061781 C192.163137,46.167052 192.483424,47.2723029 192.598939,48.5219641 L188.440423,49.2780578 C188.324908,48.1019061 187.98887,47.188302 187.432298,46.5372181 C187.033247,46.0541558 186.460932,45.8126283 185.715335,45.8126283 C184.927734,45.8126283 184.323915,46.1644183 183.903861,46.8680091 C183.567818,47.4350822 183.399798,48.1386624 183.399798,48.9787707 C183.399798,50.2914399 183.966863,51.6303425 185.101009,52.9955185 C185.531565,53.5100849 186.172138,54.1191543 187.022748,54.822745 C188.030877,55.6628533 188.697703,56.2509203 189.023245,56.5869636 C190.083882,57.6581018 190.908226,58.713472 191.496302,59.7531061 C191.769337,60.2361683 191.989862,60.6877198 192.157884,61.107774 C192.567437,62.1264053 192.782711,63.04526 192.803714,63.8643656 Z" id="Web-Apps" fill="#FFFFFF"></path>
            </g>
        </g>
    </g>
</svg>