<?xml version="1.0" encoding="UTF-8"?>
<svg width="756px" height="1083px" viewBox="0 0 756 1083" version="1.1" xmlns="http://www.w3.org/2000/svg" xmlns:xlink="http://www.w3.org/1999/xlink">
    <g id="hero-home" stroke="none" stroke-width="1" fill="none" fill-rule="evenodd">
        <path d="M303.04294,409.257292 C283.377521,409.257292 268.933913,403.555351 259.702625,392.084619 C250.378811,380.616363 245.752491,368.25184 245.752491,354.946484 C245.752491,341.668363 250.378811,329.30384 259.702625,317.833108 C268.933913,306.362376 283.377521,300.596062 303.04294,300.596062 L549.488193,300.596062 C639.682453,300.596062 685.959888,250.526429 688.277793,150.270796 L688.277793,144.848629 C688.277793,144.528415 688.261976,96.2851532 688.230343,0.118842031 L554.662554,0.118842031 C553.495297,0.101510901 552.411078,0 551.224842,0 L322.150828,0 C129.176344,0 21.7721737,90.7532217 0,272.296803 C11.862359,277.372348 90.1705355,311.475059 109.276051,335.171665 C130.756411,333.953534 144.789581,348.620622 149.083755,356.357733 C157.299625,357.976956 156.120507,366.139918 156.120507,366.139918 C156.120507,366.139918 152.606876,388.531737 145.966327,394.64715 C150.272364,401.968314 144.400496,405.231518 144.400496,405.231518 C144.400496,405.231518 141.669781,418.267004 157.674476,431.300013 C173.292457,438.633557 183.437147,435.370353 202.184419,458.992682 C213.486875,462.255886 218.561592,467.970207 218.561592,467.970207 C218.561592,467.970207 220.521253,480.993313 233.401403,489.958459 C245.899584,507.061808 240.041951,512.763749 256.046646,539.661662 C269.693104,546.168264 272.820022,554.729842 266.188963,565.717778 C261.510449,569.788117 236.915034,619.904792 199.045639,615.411078 C183.551025,625.940977 155.755146,630.236621 135.299694,639.167104 C179.928261,662.15561 235.256676,673.66348 301.308663,673.66348 L448.791,673.66348 C468.503868,673.66348 482.942731,679.43227 492.200116,690.925285 C501.431404,702.393541 506.060096,714.735781 506.060096,728.038661 C506.060096,741.344016 501.431404,753.683781 492.200116,765.154512 C482.942731,776.647527 468.503868,782.346993 448.791,782.346993 L150.329303,782.346993 C60.1113179,782.346993 13.7698263,832.473571 11.520723,932.662355 L11.3427877,1082.61376 L137.29257,1082.61376 C141.022096,1082.78707 144.716035,1083 148.616378,1083 L433.218095,1083 C648.360955,1083 756,967.740561 756,737.095414 C756,518.587009 654.168766,409.257292 450.594078,409.257292 L303.04294,409.257292 Z" id="Mask" fill="#48A2A2"></path>
    </g>
</svg>