<?xml version="1.0" encoding="utf-8"?>
<!-- Generator: Adobe Illustrator 21.1.0, SVG Export Plug-In . SVG Version: 6.00 Build 0)  -->
<svg version="1.1" id="Layer_1" xmlns="http://www.w3.org/2000/svg" xmlns:xlink="http://www.w3.org/1999/xlink" x="0px" y="0px"
	 viewBox="0 0 756 1083" style="enable-background:new 0 0 756 1083;" xml:space="preserve">
<style type="text/css">
	.st0{fill:#48A2A2;}
</style>
<path class="st0" d="M322.2,0C129.2,0,21.8,90.8,0,272.3c2.5,6.7,3.6,83.8,3.6,83.8l3.3,30.1l6.3,39.3l4.3,20.2l7.9,30l10.3,30.6
	l15.4,35.2l12.8,23l14.7,21.5l18.2,21.4l17.2,16l10.4,8.2l10.8,7.8c44.6,23,100,34.5,166,34.5h147.5c19.7,0,34.2,5.8,43.4,17.3
	c9.2,11.5,13.9,23.8,13.9,37.1s-4.6,25.6-13.9,37.1s-23.7,17.2-43.4,17.2H150.3c-90.2,0-136.6,50.1-138.8,150.3l-0.2,150h125.9
	c3.7,0.2,7.4,0.4,11.3,0.4h284.6C648.4,1083,756,967.7,756,737.1c0-218.5-101.8-327.8-305.4-327.8H303c-19.7,0-34.1-5.7-43.3-17.2
	c-9.3-11.5-14-23.8-14-37.1c0-13.3,4.6-25.6,14-37.1c9.2-11.5,23.7-17.2,43.3-17.2h246.4c90.2,0,136.5-50.1,138.8-150.3V145
	c0-0.3,0-48.6,0-144.7H554.7c-1.2,0-2.3-0.1-3.4-0.1H322.2"/>
</svg>
