<?xml version="1.0" encoding="utf-8"?>
<!-- Generator: Adobe Illustrator 21.1.0, SVG Export Plug-In . SVG Version: 6.00 Build 0)  -->
<svg version="1.1" id="Layer_1" xmlns="http://www.w3.org/2000/svg" xmlns:xlink="http://www.w3.org/1999/xlink" x="0px" y="0px"
	 viewBox="0 0 756 1083" style="enable-background:new 0 0 756 1083;" xml:space="preserve">
<style type="text/css">
	.st0{fill:#48A2A2;}
</style>
<path class="st0" d="M322.2,0C129.2,0,21.8,90.8,0,272.3c11.9,5.1,90.2,39.2,109.3,62.9c21.5-1.2,35.5,13.4,39.8,21.2
	c8.2,1.6,7,9.8,7,9.8s-3.5,22.4-10.2,28.5c4.3,7.3-1.6,10.6-1.6,10.6s-2.7,13,13.3,26.1c15.6,7.3,25.8,4.1,44.5,27.7
	c11.3,3.3,16.4,9,16.4,9s2,13,14.8,22c12.5,17.1,6.6,22.8,22.6,49.7c13.6,6.5,16.8,15.1,10.1,26.1c-4.7,4.1-29.3,54.2-67.1,49.7
	c-15.5,10.5-43.3,14.8-63.7,23.8c44.6,23,100,34.5,166,34.5h147.5c19.7,0,34.2,5.8,43.4,17.3c9.2,11.5,13.9,23.8,13.9,37.1
	c0,13.3-4.6,25.6-13.9,37.1c-9.3,11.5-23.7,17.2-43.4,17.2H150.3c-90.2,0-136.6,50.1-138.8,150.3l-0.2,150h125.9
	c3.7,0.2,7.4,0.4,11.3,0.4h284.6C648.4,1083,756,967.7,756,737.1c0-218.5-101.8-327.8-305.4-327.8l-147.6,0
	c-19.7,0-34.1-5.7-43.3-17.2c-9.3-11.5-14-23.8-14-37.1c0-13.3,4.6-25.6,14-37.1c9.2-11.5,23.7-17.2,43.3-17.2h246.4
	c90.2,0,136.5-50.1,138.8-150.3v-5.4c0-0.3,0-48.6,0-144.7H554.7c-1.2,0-2.3-0.1-3.4-0.1H322.2"/>
</svg>
