<?xml version="1.0" encoding="UTF-8"?>
<svg width="727px" height="727px" viewBox="0 0 727 727" version="1.1" xmlns="http://www.w3.org/2000/svg" xmlns:xlink="http://www.w3.org/1999/xlink">
    <!-- Generator: Sketch 49.2 (51160) - http://www.bohemiancoding.com/sketch -->
    <title>hero-how-we-work</title>
    <desc>Created with Sketch.</desc>
    <defs></defs>
    <g id="hero-how-we-work" stroke="none" stroke-width="1" fill="none" fill-rule="evenodd">
        <path d="M363.403851,0 C162.722161,0 0,162.722161 0,363.403851 C0,564.124001 162.722161,727 363.403851,727 C564.124001,727 727,564.124001 727,363.403851 C727,162.722161 564.124001,0 363.403851,0 Z M439.69992,562.33724 C420.953339,569.673828 406.086685,575.24349 394.984714,579.123047 C383.882743,583.041016 370.975261,585 356.262269,585 C333.597345,585 315.926388,579.430339 303.441472,568.329427 C290.841311,557.382161 284.694891,543.285156 284.694891,526.307292 C284.694891,519.700521 285.155873,512.978516 286.039421,506.064453 C286.961384,499.150391 288.459574,491.50651 290.53399,482.787109 L313.967216,400.125651 C316.041633,392.174479 317.847144,384.684245 319.191673,377.770182 C320.574618,370.548828 321.304505,364.134115 321.304505,358.257161 C321.304505,347.770833 319.076428,340.395833 314.697104,336.208984 C310.356195,332.022135 302.096943,330.063151 289.804103,330.063151 C283.811344,330.063151 277.511263,330.946615 271.172767,332.751953 C264.872687,334.710938 259.49457,336.516276 255,338.167969 L261.14642,312.816406 C276.43564,306.516927 291.148632,301.254557 305.093323,296.760417 C319.076428,292.227865 332.252816,290 344.737731,290 C367.210579,290 384.497385,295.53125 396.636565,306.363281 C408.775744,317.156901 414.960579,331.253906 414.960579,348.654297 C414.960579,352.264974 414.499598,358.564453 413.731295,367.552734 C412.847747,376.733073 411.349558,384.953125 409.083065,392.481771 L385.841915,474.835938 C383.882743,481.442708 382.230893,489.086589 380.579043,497.498698 C379.080853,505.910807 378.350965,512.363932 378.350965,516.704427 C378.350965,527.651693 380.886364,535.180339 385.688254,539.059896 C390.643805,543.13151 399.056718,545.052083 411.195897,545.052083 C416.881335,545.052083 423.219831,544.014974 430.403459,542.05599 C437.471842,540.135417 442.696299,538.330078 446,536.832031 L439.69992,562.33724 Z M434.819689,228.840548 C423.892228,238.882723 410.855959,244 395.557513,244 C380.450777,244 367.26114,238.882723 356.333679,228.840548 C345.559585,218.759896 340,206.447651 340,192.019238 C340,177.706252 345.559585,165.394007 356.333679,155.159452 C367.26114,145.117277 380.450777,140 395.557513,140 C410.855959,140 423.892228,145.117277 434.819689,155.159452 C445.593782,165.394007 451,177.706252 451,192.019238 C451,206.447651 445.593782,218.759896 434.819689,228.840548 Z" id="icon" fill="#48A2A2"></path>
    </g>
</svg>