<?xml version="1.0" encoding="UTF-8"?>
<svg width="930px" height="1134px" viewBox="0 0 930 1134" version="1.1" xmlns="http://www.w3.org/2000/svg" xmlns:xlink="http://www.w3.org/1999/xlink">
    <!-- Generator: Sketch 49.2 (51160) - http://www.bohemiancoding.com/sketch -->
    <title>hero-pricing</title>
    <desc>Created with Sketch.</desc>
    <defs></defs>
    <g id="hero-pricing" stroke="none" stroke-width="1" fill="none" fill-rule="evenodd">
        <path d="M420.875488,482.922852 L647.385742,482.922852 L647.385742,661.589355 L447.040039,661.589355 C444.548165,703.951221 436.82347,742.076328 423.865723,775.96582 C413.39985,801.881314 395.956991,828.793155 371.536621,856.702148 C399.445615,850.223275 423.367251,846.983887 443.302246,846.983887 C468.719365,846.983887 501.860798,851.967561 542.727539,861.935059 C598.545526,874.892806 643.14941,881.371582 676.540527,881.371582 C703.951146,881.371582 727.74819,879.004337 747.932373,874.269775 C768.116556,869.535214 794.654621,859.692458 827.547363,844.741211 L929.215332,1067.51367 C879.876218,1092.43242 836.518253,1109.62609 799.140137,1119.09521 C761.76202,1128.56434 721.643443,1133.29883 678.783203,1133.29883 C631.935964,1133.29883 578.361467,1125.07577 518.058105,1108.62939 C438.816498,1086.7009 389.727308,1073.99253 370.789062,1070.50391 C351.850817,1067.01528 331.417753,1065.271 309.489258,1065.271 C245.198897,1065.271 174.181541,1087.94671 96.4350586,1133.29883 L0,920.992188 C104.658726,845.737579 156.987305,770.4841 156.987305,695.229492 C156.987305,691.242493 156.488937,680.029226 155.492188,661.589355 L0,661.589355 L0,482.922852 L111.38623,482.922852 C92.4479847,417.137366 81.7330854,379.012259 79.2412109,368.546387 C76.2509616,352.59839 74.7558594,332.912878 74.7558594,309.489258 C74.7558594,247.192397 91.3265758,191.250655 124.468506,141.662354 C157.610436,92.0740522 201.217584,56.0670067 255.29126,33.6401367 C309.364935,11.2132668 382.251169,0 473.952148,0 C559.672629,0 627.575189,9.59357268 677.661865,28.7810059 C727.748541,47.968439 770.109771,79.8639534 804.746826,124.468506 C839.383881,169.073058 863.180925,223.021331 876.138672,286.314941 L590.571289,331.168457 C576.118417,277.842344 559.547701,242.458258 540.858643,225.015137 C522.169584,207.572016 500.864377,198.850586 476.942383,198.850586 C448.036639,198.850586 424.613371,208.319567 406.671875,227.257812 C388.730379,246.196058 379.759766,273.107898 379.759766,307.994141 C379.759766,326.434011 381.504052,344.250646 384.992676,361.44458 C388.4813,378.638514 400.442118,419.130866 420.875488,482.922852 Z" id="£" fill="#48A2A2"></path>
    </g>
</svg>