<?xml version="1.0" encoding="UTF-8"?>
<svg width="717px" height="967px" viewBox="0 0 717 967" version="1.1" xmlns="http://www.w3.org/2000/svg" xmlns:xlink="http://www.w3.org/1999/xlink">
    <!-- Generator: Sketch 49.2 (51160) - http://www.bohemiancoding.com/sketch -->
    <title>hero-why-choose-us</title>
    <desc>Created with Sketch.</desc>
    <defs></defs>
    <g id="hero-why-choose-us" stroke="none" stroke-width="1" fill="none" fill-rule="evenodd">
        <path d="M461.99457,668.663313 L215.424434,668.663313 L215.424434,644.018109 C215.424434,602.077814 220.182758,568.028859 229.699548,541.870221 C239.216337,515.711584 253.383164,491.823269 272.200452,470.204561 C291.017741,448.585852 333.301934,410.537496 399.054299,356.05835 C434.093388,327.521655 451.61267,301.36341 451.61267,277.58283 C451.61267,253.802251 444.583328,235.318532 430.524434,222.13112 C416.465541,208.943708 395.161229,202.350101 366.61086,202.350101 C335.897584,202.350101 310.483811,212.510741 290.368778,232.832327 C270.253746,253.153913 257.384644,288.608064 251.761086,339.195842 L0,308.065057 C8.65162697,215.536984 42.2843223,141.06165 100.899095,84.6368209 C159.513868,28.2119915 249.381295,0 370.504072,0 C464.806806,0 540.939982,19.6727297 598.905882,59.0187793 C677.635688,112.200802 717,183.109103 717,271.745808 C717,308.497613 706.834491,343.951763 686.503167,378.109323 C666.171844,412.266882 624.644658,453.990364 561.920362,503.281019 C518.229646,537.870953 490.652998,565.650577 479.189593,586.620724 C467.726187,607.590872 461.99457,634.938128 461.99457,668.663313 Z M206.98914,734.167673 L471.078733,734.167673 L471.078733,967 L206.98914,967 L206.98914,734.167673 Z" id="?" fill="#48A2A2"></path>
    </g>
</svg>